<?xml version="1.0" standalone="no"?>
<!DOCTYPE svg PUBLIC "-//W3C//DTD SVG 1.1//EN" "http://www.w3.org/Graphics/SVG/1.1/DTD/svg11.dtd" >
<svg xmlns="http://www.w3.org/2000/svg">
<metadata>Generated by IcoMoon</metadata>
<defs>
<font id="kikodu" horiz-adv-x="1024">
<font-face units-per-em="1024" ascent="960" descent="-64" />
<missing-glyph horiz-adv-x="1024" />
<glyph unicode="&#x20;" horiz-adv-x="512" d="" />
<glyph unicode="&#xe900;" glyph-name="award-ribbon" d="M331.233-48.327c0 0-1.045 0-1.045 0-8.359 0-15.673 6.269-18.808 13.584l-74.188 203.755-216.294-1.045c0 0 0 0 0 0-8.359 0-15.673 5.224-18.808 12.539s-2.090 16.718 4.18 22.988l219.429 238.237c7.314 8.359 20.898 9.404 29.257 1.045s9.404-20.898 1.045-29.257l-187.037-203.755h182.857c0 0 0 0 0 0 8.359 0 16.718-5.224 19.853-13.584l62.694-171.363 127.478 261.224c5.224 10.449 17.763 14.629 28.212 9.404s14.629-17.763 9.404-28.212l-149.42-304.065c-4.18-7.314-10.449-11.494-18.808-11.494zM692.767-50.416c-8.359 0-15.673 4.18-18.808 11.494l-150.465 307.2c-5.224 10.449-1.045 22.988 9.404 28.212s22.988 1.045 28.212-9.404l128.522-263.314 62.694 171.363c3.135 8.359 10.449 13.584 19.853 13.584 0 0 0 0 0 0h182.857l-188.082 203.755c-7.314 8.359-7.314 21.943 1.045 29.257s21.943 7.314 29.257-1.045l220.473-239.282c5.224-6.269 7.314-14.629 4.18-22.988-3.135-7.314-10.449-12.539-18.808-12.539 0 0 0 0 0 0h-216.294l-74.188-202.71c-3.135-8.359-10.449-13.584-18.808-13.584 0 0-1.045 0-1.045 0zM512 265.143c-187.037 0-339.592 152.555-339.592 339.592s152.555 339.592 339.592 339.592 339.592-152.555 339.592-339.592-152.555-339.592-339.592-339.592zM512 902.531c-164.049 0-297.796-133.747-297.796-297.796s133.747-297.796 297.796-297.796c164.049 0 297.796 133.747 297.796 297.796s-133.747 297.796-297.796 297.796z" />
<glyph unicode="&#xe901;" glyph-name="award-ribbon-first" d="M331.233-48.327c0 0-1.045 0-1.045 0-8.359 0-15.673 6.269-18.808 13.584l-74.188 203.755-216.294-1.045c0 0 0 0 0 0-8.359 0-15.673 5.224-18.808 12.539s-2.090 16.718 4.18 22.988l219.429 238.237c7.314 8.359 20.898 9.404 29.257 1.045s9.404-20.898 1.045-29.257l-187.037-203.755h182.857c0 0 0 0 0 0 8.359 0 16.718-5.224 19.853-13.584l62.694-171.363 127.478 261.224c5.224 10.449 17.763 14.629 28.212 9.404s14.629-17.763 9.404-28.212l-149.42-304.065c-4.18-7.314-10.449-11.494-18.808-11.494zM692.767-50.416c-8.359 0-15.673 4.18-18.808 11.494l-150.465 307.2c-5.224 10.449-1.045 22.988 9.404 28.212s22.988 1.045 28.212-9.404l128.522-263.314 62.694 171.363c3.135 8.359 10.449 13.584 19.853 13.584 0 0 0 0 0 0h182.857l-188.082 203.755c-7.314 8.359-7.314 21.943 1.045 29.257s21.943 7.314 29.257-1.045l220.473-239.282c5.224-6.269 7.314-14.629 4.18-22.988-3.135-7.314-10.449-12.539-18.808-12.539 0 0 0 0 0 0h-216.294l-74.188-202.71c-3.135-8.359-10.449-13.584-18.808-13.584 0 0-1.045 0-1.045 0zM512 265.143c-187.037 0-339.592 152.555-339.592 339.592s152.555 339.592 339.592 339.592 339.592-152.555 339.592-339.592-152.555-339.592-339.592-339.592zM512 902.531c-164.049 0-297.796-133.747-297.796-297.796s133.747-297.796 297.796-297.796c164.049 0 297.796 133.747 297.796 297.796s-133.747 297.796-297.796 297.796zM555.886 453.224c-11.494 0-20.898 9.404-20.898 20.898v224.653l-55.38-33.437c-9.404-6.269-22.988-3.135-28.212 7.314-6.269 9.404-3.135 22.988 7.314 28.212l86.727 52.245c6.269 4.18 14.629 4.18 20.898 0s10.449-10.449 10.449-17.763v-261.224c0-11.494-9.404-20.898-20.898-20.898z" />
<glyph unicode="&#xe902;" glyph-name="award-ribbon-check" d="M331.233-48.327c0 0-1.045 0-1.045 0-8.359 0-15.673 6.269-18.808 13.584l-74.188 203.755-216.294-1.045c0 0 0 0 0 0-8.359 0-15.673 5.224-18.808 12.539s-2.090 16.718 4.18 22.988l219.429 238.237c7.314 8.359 20.898 9.404 29.257 1.045s9.404-20.898 1.045-29.257l-187.037-203.755h182.857c0 0 0 0 0 0 8.359 0 16.718-5.224 19.853-13.584l62.694-171.363 127.478 261.224c5.224 10.449 17.763 14.629 28.212 9.404s14.629-17.763 9.404-28.212l-149.42-304.065c-4.18-7.314-10.449-11.494-18.808-11.494zM692.767-50.416c-8.359 0-15.673 4.18-18.808 11.494l-150.465 307.2c-5.224 10.449-1.045 22.988 9.404 28.212s22.988 1.045 28.212-9.404l128.522-263.314 62.694 171.363c3.135 8.359 10.449 13.584 19.853 13.584 0 0 0 0 0 0h182.857l-188.082 203.755c-7.314 8.359-7.314 21.943 1.045 29.257s21.943 7.314 29.257-1.045l220.473-239.282c5.224-6.269 7.314-14.629 4.18-22.988-3.135-7.314-10.449-12.539-18.808-12.539 0 0 0 0 0 0h-216.294l-74.188-202.71c-3.135-8.359-10.449-13.584-18.808-13.584 0 0-1.045 0-1.045 0zM512 265.143c-187.037 0-339.592 152.555-339.592 339.592s152.555 339.592 339.592 339.592 339.592-152.555 339.592-339.592-152.555-339.592-339.592-339.592zM512 902.531c-164.049 0-297.796-133.747-297.796-297.796s133.747-297.796 297.796-297.796c164.049 0 297.796 133.747 297.796 297.796s-133.747 297.796-297.796 297.796zM463.935 489.796c-5.224 0-10.449 2.090-14.629 6.269l-91.951 91.951c-8.359 8.359-8.359 20.898 0 29.257s20.898 8.359 29.257 0l76.278-76.278 174.498 172.408c8.359 8.359 20.898 8.359 29.257 0s8.359-20.898 0-29.257l-189.127-188.082c-3.135-4.18-8.359-6.269-13.584-6.269z" />
<glyph unicode="&#xe903;" glyph-name="award-ribbon-star" d="M427.363 453.224c-4.18 0-8.359 1.045-12.539 4.18-6.269 4.18-9.404 12.539-8.359 20.898l14.629 83.592-60.604 58.514c-5.224 5.224-7.314 13.584-5.224 21.943 2.090 7.314 9.404 13.584 16.718 14.629l83.592 12.539 37.616 76.278c3.135 7.314 10.449 11.494 18.808 11.494v0c8.359 0 15.673-4.18 18.808-11.494l37.616-76.278 83.592-12.539c8.359-1.045 14.629-6.269 16.718-14.629 2.090-7.314 0-15.673-5.224-21.943l-60.604-59.559 14.629-83.592c1.045-8.359-2.090-15.673-8.359-20.898-6.269-4.18-14.629-5.224-21.943-2.090l-75.233 40.751-75.233-39.706c-3.135-1.045-6.269-2.090-9.404-2.090zM512 539.951c3.135 0 6.269-1.045 9.404-2.090l47.020-25.078-9.404 53.29c-1.045 6.269 1.045 13.584 6.269 18.808l38.661 37.616-53.29 7.314c-7.314 1.045-12.539 5.224-15.673 11.494l-22.988 47.020-24.033-48.065c-3.135-6.269-9.404-10.449-15.673-11.494l-53.29-7.314 38.661-37.616c5.224-5.224 7.314-11.494 6.269-18.808l-9.404-53.29 47.020 25.078c4.18 2.090 7.314 3.135 10.449 3.135zM331.233-48.327c0 0-1.045 0-1.045 0-8.359 0-15.673 6.269-18.808 13.584l-74.188 203.755-216.294-1.045c0 0 0 0 0 0-8.359 0-15.673 5.224-18.808 12.539s-2.090 16.718 4.18 22.988l219.429 238.237c7.314 8.359 20.898 9.404 29.257 1.045s9.404-20.898 1.045-29.257l-187.037-203.755h182.857c0 0 0 0 0 0 8.359 0 16.718-5.224 19.853-13.584l62.694-171.363 127.478 261.224c5.224 10.449 17.763 14.629 28.212 9.404s14.629-17.763 9.404-28.212l-149.42-304.065c-4.18-7.314-10.449-11.494-18.808-11.494zM692.767-50.416c-8.359 0-15.673 4.18-18.808 11.494l-150.465 307.2c-5.224 10.449-1.045 22.988 9.404 28.212s22.988 1.045 28.212-9.404l128.522-263.314 62.694 171.363c3.135 8.359 10.449 13.584 19.853 13.584 0 0 0 0 0 0h182.857l-188.082 203.755c-7.314 8.359-7.314 21.943 1.045 29.257s21.943 7.314 29.257-1.045l220.473-239.282c5.224-6.269 7.314-14.629 4.18-22.988-3.135-7.314-10.449-12.539-18.808-12.539 0 0 0 0 0 0h-216.294l-74.188-202.71c-3.135-8.359-10.449-13.584-18.808-13.584 0 0-1.045 0-1.045 0zM512 265.143c-187.037 0-339.592 152.555-339.592 339.592s152.555 339.592 339.592 339.592 339.592-152.555 339.592-339.592-152.555-339.592-339.592-339.592zM512 902.531c-164.049 0-297.796-133.747-297.796-297.796s133.747-297.796 297.796-297.796c164.049 0 297.796 133.747 297.796 297.796s-133.747 297.796-297.796 297.796z" />
<glyph unicode="&#xe904;" glyph-name="gem" d="M678.139 825.208h-332.278c-1.045 0-2.090 0-3.135 0l-166.139 28.212c-10.449 2.090-17.763 10.449-17.763 20.898s7.314 18.808 17.763 20.898l166.139 28.212c1.045 0 2.090 0 3.135 0h332.278c1.045 0 2.090 0 3.135 0l166.139-28.212c10.449-2.090 17.763-10.449 17.763-20.898s-7.314-18.808-17.763-20.898l-166.139-27.167c-1.045-1.045-2.090-1.045-3.135-1.045zM347.951 867.004h329.143l41.796 7.314-41.796 7.314h-329.143l-41.796-7.314 41.796-7.314zM757.551 639.216h-491.102c-1.045 0-2.090 0-3.135 0l-245.551 41.796c-11.494 2.090-19.853 12.539-17.763 24.033s12.539 18.808 24.033 16.718l243.461-40.751h487.967l243.461 40.751c11.494 2.090 21.943-5.224 24.033-16.718s-5.224-21.943-16.718-24.033l-245.551-41.796c-1.045 0-2.090 0-3.135 0zM512-30.563c-7.314 0-13.584 3.135-16.718 9.404l-491.102 710.531c-5.224 8.359-5.224 18.808 2.090 26.122l157.78 173.453c7.314 8.359 20.898 9.404 29.257 1.045 8.359-7.314 9.404-20.898 1.045-29.257l-146.286-160.914 463.935-672.914 463.935 671.869-147.331 161.959c-7.314 8.359-7.314 21.943 1.045 29.257s21.943 7.314 29.257-1.045l158.824-173.453c6.269-7.314 7.314-17.763 2.090-26.122l-491.102-710.531c-3.135-5.224-9.404-9.404-16.718-9.404zM512-30.563c-8.359 0-16.718 5.224-19.853 13.584l-245.551 668.735c-2.090 5.224-2.090 10.449 0 15.673l79.412 187.037c4.18 10.449 16.718 15.673 27.167 11.494s15.673-16.718 11.494-27.167l-76.278-178.678 223.608-609.176 222.563 608.131-75.233 179.722c-4.18 10.449 0 22.988 11.494 27.167 10.449 4.18 22.988 0 27.167-11.494l79.412-187.037c2.090-5.224 2.090-10.449 0-15.673l-245.551-668.735c-3.135-7.314-11.494-13.584-19.853-13.584z" />
<glyph unicode="&#xe905;" glyph-name="graduation-cap" d="M513.056 290.705c-3.167 0-7.39 1.056-10.557 3.167l-491.942 283.975c-6.334 4.223-10.557 10.557-10.557 17.946s4.223 14.779 10.557 17.946l491.942 285.031c6.334 4.223 14.779 4.223 21.113 0l491.942-283.975c6.334-4.223 10.557-10.557 10.557-17.946s-4.223-14.779-10.557-17.946l-491.942-285.031c-3.167-2.111-6.334-3.167-10.557-3.167zM63.34 596.849l449.715-259.695 449.715 259.695-449.715 259.695-449.715-259.695zM513.056-3.827c-116.124 0-228.025 28.503-309.311 79.175-9.501 6.334-12.668 19.002-7.39 29.559 6.334 9.501 19.002 12.668 29.559 7.39 74.953-46.449 179.464-72.841 287.142-72.841s212.19 26.392 287.142 72.841c9.501 6.334 23.225 3.167 29.559-6.334s3.167-23.225-6.334-29.559c-82.342-51.728-192.132-80.231-310.367-80.231zM215.357 72.181c-11.612 0-21.113 9.501-21.113 21.113v381.097c0 11.612 9.501 21.113 21.113 21.113s21.113-9.501 21.113-21.113v-381.097c0-11.612-9.501-21.113-21.113-21.113zM811.81 72.181c-11.612 0-21.113 9.501-21.113 21.113v381.097c0 11.612 9.501 21.113 21.113 21.113s21.113-9.501 21.113-21.113v-381.097c0-11.612-9.501-21.113-21.113-21.113zM951.159 291.761c-11.612 0-21.113 9.501-21.113 21.113v253.361c0 11.612 9.501 21.113 21.113 21.113s21.113-9.501 21.113-21.113v-253.361c0-11.612-9.501-21.113-21.113-21.113z" />
<glyph unicode="&#xe906;" glyph-name="offer-heart" d="M523.494 460.539c-40.751 0-238.237 159.869-245.551 291.527 0 0 0 1.045 0 1.045v7.314c0 36.571 14.629 71.053 40.751 97.176 25.078 25.078 59.559 39.706 97.176 39.706 0 0 0 0 0 0 42.841 0 82.547-19.853 107.624-52.245 14.629 17.763 33.437 32.392 55.38 41.796 34.482 13.584 71.053 13.584 105.535 0 51.2-21.943 84.637-71.053 84.637-127.478 0-1.045 0-3.135 0-4.18v-3.135c0 0 0-1.045 0-1.045-8.359-130.612-205.845-290.482-245.551-290.482zM319.739 753.11c6.269-105.535 169.273-238.237 203.755-250.776 34.482 12.539 196.441 145.241 203.755 250.776v6.269c0 1.045 0 2.090 0 4.18-1.045 37.616-24.033 70.008-58.514 84.637-24.033 9.404-50.155 9.404-73.143 0-24.033-9.404-41.796-28.212-52.245-52.245-3.135-7.314-10.449-12.539-18.808-12.539v0c-8.359 0-15.673 5.224-18.808 12.539-16.718 36.571-51.2 59.559-89.861 59.559 0 0 0 0 0 0-26.122 0-50.155-10.449-67.918-28.212s-28.212-41.796-28.212-67.918v-6.269zM748.147 753.11v0 0zM102.4 25.861c-11.494 0-21.943 3.135-30.302 10.449-11.494 8.359-18.808 20.898-20.898 34.482l-50.155 323.918c-2.090 13.584 1.045 27.167 9.404 38.661s20.898 18.808 34.482 20.898l83.592 12.539c13.584 2.090 27.167-1.045 38.661-9.404s18.808-20.898 20.898-34.482l50.155-324.963c2.090-13.584-1.045-27.167-9.404-38.661s-20.898-18.808-34.482-20.898l-83.592-12.539c-3.135 0-5.224 0-8.359 0zM135.837 426.057c0 0-1.045 0-2.090 0l-83.592-12.539c-4.18-1.045-6.269-3.135-7.314-4.18s-1.045-4.18-1.045-8.359l50.155-324.963c1.045-4.18 3.135-6.269 4.18-7.314s4.18-2.090 7.314-2.090l83.592 12.539c4.18 1.045 6.269 3.135 7.314 4.18s2.090 4.18 2.090 7.314l-50.155 327.053c-1.045 4.18-3.135 6.269-4.18 7.314-1.045 0-4.18 1.045-6.269 1.045zM47.020 434.416v0 0zM491.102-5.486c-50.155 0-220.473 50.155-273.763 66.873-11.494 3.135-17.763 14.629-13.584 26.122 3.135 11.494 14.629 17.763 26.122 13.584 112.849-34.482 242.416-67.918 262.269-64.784 22.988 5.224 197.486 100.31 314.514 164.049 84.637 45.976 143.151 78.367 171.363 91.951-2.090 4.18-5.224 10.449-12.539 16.718-10.449 10.449-40.751 32.392-94.041 25.078l-221.518-34.482c-11.494-2.090-21.943 6.269-24.033 17.763s6.269 21.943 17.763 24.033l221.518 33.437c64.784 9.404 112.849-16.718 136.882-43.886 16.718-18.808 22.988-40.751 17.763-57.469-2.090-6.269-6.269-10.449-11.494-12.539-17.763-7.314-97.176-50.155-181.812-96.131-213.159-117.029-306.155-166.139-328.098-170.318-2.090 0-4.18 0-7.314 0zM366.759 160.653c-10.449 0-18.808 7.314-20.898 17.763-2.090 11.494 6.269 21.943 17.763 24.033l298.841 45.976c-12.539 33.437-42.841 90.906-107.624 81.502l-153.6-24.033c-7.314-1.045-14.629 2.090-19.853 7.314-1.045 1.045-60.604 75.233-127.478 64.784l-74.188-11.494c-11.494-2.090-21.943 6.269-24.033 17.763s6.269 21.943 17.763 24.033l74.188 11.494c74.188 11.494 136.882-47.020 158.824-70.008l142.106 21.943c101.355 15.673 150.465-81.502 161.959-134.792 1.045-5.224 0-11.494-3.135-16.718s-8.359-8.359-13.584-8.359l-322.873-50.155c-2.090-1.045-3.135-1.045-4.18-1.045z" />
<glyph unicode="&#xe907;" glyph-name="offer-star" d="M102.4 2.873c-25.078 0-48.065 18.808-51.2 43.886l-50.155 326.008c-2.090 13.584 1.045 27.167 9.404 38.661s20.898 18.808 34.482 20.898l83.592 12.539c13.584 2.090 27.167-1.045 38.661-9.404s18.808-20.898 20.898-34.482l50.155-324.963c4.18-28.212-15.673-55.38-43.886-59.559l-83.592-12.539c-3.135-1.045-5.224-1.045-8.359-1.045zM135.837 404.114c0 0-1.045 0-2.090 0l-83.592-12.539c-4.18-1.045-6.269-3.135-7.314-4.18 0-2.090-1.045-5.224-1.045-8.359l50.155-324.963c1.045-5.224 6.269-9.404 11.494-8.359l83.592 12.539c5.224 1.045 9.404 6.269 8.359 11.494l-49.11 324.963c-1.045 4.18-3.135 6.269-4.18 7.314-1.045 0-4.18 2.090-6.269 2.090zM47.020 411.429v0 0zM491.102-28.473c-50.155 0-220.473 50.155-273.763 66.873-11.494 3.135-17.763 14.629-13.584 26.122 3.135 11.494 14.629 17.763 26.122 13.584 112.849-34.482 242.416-67.918 262.269-64.784 22.988 5.224 199.576 101.355 316.604 165.094 83.592 44.931 141.061 76.278 168.229 90.906-2.090 4.18-5.224 10.449-12.539 16.718-10.449 10.449-40.751 32.392-94.041 25.078l-221.518-34.482c-11.494-2.090-21.943 6.269-24.033 17.763s6.269 21.943 17.763 24.033l221.518 34.482c64.784 10.449 112.849-16.718 136.882-43.886 16.718-18.808 22.988-40.751 17.763-57.469-2.090-6.269-6.269-10.449-11.494-12.539-16.718-7.314-95.086-50.155-178.678-95.086-211.069-114.939-308.245-166.139-330.188-170.318-2.090-1.045-4.18-2.090-7.314-2.090zM366.759 137.665c-10.449 0-18.808 7.314-20.898 17.763-2.090 11.494 6.269 21.943 17.763 24.033l298.841 45.976c-12.539 33.437-42.841 90.906-107.624 81.502l-153.6-24.033c-7.314-1.045-14.629 2.090-19.853 7.314-1.045 1.045-60.604 75.233-127.478 64.784l-74.188-11.494c-11.494-2.090-21.943 6.269-24.033 17.763s6.269 21.943 17.763 24.033l74.188 11.494c75.233 11.494 136.882-47.020 158.824-70.008l142.106 21.943c101.355 15.673 150.465-81.502 161.959-134.792 1.045-5.224 0-11.494-3.135-16.718s-8.359-8.359-13.584-8.359l-322.873-50.155c-2.090-1.045-3.135-1.045-4.18-1.045zM377.208 437.551c-4.18 0-8.359 1.045-12.539 4.18-6.269 4.18-9.404 12.539-8.359 20.898l26.122 151.51-109.714 106.58c-5.224 5.224-7.314 13.584-5.224 21.943 2.090 7.314 9.404 13.584 16.718 14.629l152.555 21.943 67.918 137.927c3.135 7.314 10.449 11.494 18.808 11.494 0 0 0 0 0 0 8.359 0 15.673-4.18 18.808-11.494l67.918-137.927 152.555-22.988c8.359-1.045 14.629-6.269 16.718-14.629s0-15.673-5.224-21.943l-110.759-105.535 26.122-152.555c1.045-8.359-2.090-15.673-8.359-20.898-6.269-4.18-14.629-5.224-21.943-2.090l-135.837 72.098-135.837-72.098c-4.18 0-7.314-1.045-10.449-1.045zM523.494 555.624c3.135 0 6.269-1.045 9.404-2.090l108.669-57.469-20.898 121.208c-1.045 6.269 1.045 13.584 6.269 18.808l87.771 85.682-121.208 17.763c-7.314 1.045-12.539 5.224-15.673 11.494l-54.335 109.714-54.335-109.714c-3.135-6.269-9.404-10.449-15.673-11.494l-121.208-17.763 87.771-85.682c5.224-5.224 7.314-11.494 6.269-18.808l-20.898-121.208 108.669 57.469c2.090 2.090 5.224 2.090 9.404 2.090zM450.351 759.38v0 0z" />
<glyph unicode="&#xe908;" glyph-name="star" d="M818.155-39.967c-3.135 0-6.269 1.045-9.404 2.090l-295.706 155.69-294.661-155.69c-7.314-4.18-15.673-3.135-21.943 2.090-6.269 4.18-9.404 12.539-8.359 20.898l56.424 328.098-238.237 231.967c-5.224 5.224-7.314 13.584-5.224 21.943s9.404 13.584 16.718 14.629l329.143 48.065 148.376 297.796c3.135 7.314 10.449 11.494 18.808 11.494 0 0 0 0 0 0 8.359 0 15.673-4.18 18.808-11.494l146.286-298.841 329.143-48.065c8.359-1.045 14.629-6.269 16.718-14.629s0-15.673-5.224-21.943l-237.192-230.922 56.424-328.098c1.045-8.359-2.090-15.673-8.359-20.898-4.18-3.135-8.359-4.18-12.539-4.18zM65.829 546.22l216.294-211.069c5.224-5.224 7.314-11.494 6.269-18.808l-51.2-296.751 267.494 140.016c6.269 3.135 13.584 3.135 19.853 0l265.404-140.016-51.2 297.796c-1.045 6.269 1.045 13.584 6.269 18.808l216.294 210.024-298.841 42.841c-7.314 1.045-12.539 5.224-15.673 11.494l-133.747 270.629-132.702-270.629c-3.135-6.269-9.404-10.449-15.673-11.494l-298.841-42.841z" />
<glyph unicode="&#xe909;" glyph-name="stars" d="M371.984 434.416c-4.18 0-8.359 1.045-12.539 4.18-6.269 4.18-9.404 12.539-8.359 20.898l25.078 145.241-105.535 102.4c-5.224 5.224-7.314 13.584-5.224 21.943 2.090 7.314 9.404 13.584 16.718 14.629l145.241 20.898 64.784 131.657c4.18 7.314 11.494 11.494 19.853 11.494s15.673-4.18 18.808-11.494l64.784-132.702 146.286-20.898c8.359-1.045 14.629-6.269 16.718-14.629 2.090-7.314 0-15.673-5.224-21.943l-105.535-101.355 25.078-145.241c1.045-8.359-2.090-15.673-8.359-20.898-6.269-4.18-14.629-5.224-21.943-2.090l-130.612 68.963-130.612-67.918c-3.135-2.090-6.269-3.135-9.404-3.135zM330.188 707.135l82.547-80.457c5.224-5.224 7.314-11.494 6.269-18.808l-19.853-113.894 102.4 54.335c6.269 3.135 13.584 3.135 19.853 0l102.4-54.335-19.853 113.894c-1.045 6.269 1.045 13.584 6.269 18.808l82.547 80.457-114.939 16.718c-7.314 1.045-12.539 5.224-15.673 11.494l-50.155 104.49-51.2-103.445c-3.135-6.269-9.404-10.449-15.673-11.494l-114.939-17.763zM107.624-9.665c-4.18 0-8.359 1.045-12.539 4.18-6.269 4.18-9.404 12.539-8.359 20.898l25.078 145.241-105.535 101.355c-5.224 5.224-7.314 13.584-5.224 21.943 2.090 7.314 9.404 12.539 16.718 14.629l145.241 20.898 64.784 131.657c3.135 7.314 10.449 11.494 18.808 11.494v0c8.359 0 15.673-4.18 18.808-11.494l64.784-131.657 145.241-20.898c8.359-1.045 14.629-6.269 16.718-14.629 2.090-7.314 0-15.673-5.224-21.943l-105.535-102.4 25.078-145.241c1.045-8.359-2.090-15.673-8.359-20.898-6.269-4.18-14.629-5.224-21.943-2.090l-128.522 70.008-130.612-68.963c-3.135-1.045-6.269-2.090-9.404-2.090zM247.641 105.273c3.135 0 6.269-1.045 9.404-2.090l102.4-54.335-19.853 113.894c-1.045 6.269 1.045 13.584 6.269 18.808l82.547 80.457-114.939 16.718c-7.314 1.045-12.539 5.224-15.673 11.494l-51.2 104.49-51.2-104.49c-3.135-6.269-9.404-10.449-15.673-11.494l-114.939-16.718 82.547-80.457c5.224-5.224 7.314-11.494 6.269-18.808l-19.853-113.894 102.4 54.335c5.224 1.045 8.359 2.090 11.494 2.090zM177.633 299.624v0 0zM636.343-9.665c-4.18 0-8.359 1.045-12.539 4.18-6.269 4.18-9.404 12.539-8.359 20.898l25.078 145.241-105.535 102.4c-5.224 5.224-7.314 13.584-5.224 21.943s9.404 13.584 16.718 14.629l145.241 20.898 64.784 131.657c3.135 7.314 10.449 11.494 18.808 11.494 0 0 0 0 0 0 8.359 0 15.673-4.18 18.808-11.494l64.784-131.657 145.241-20.898c8.359-1.045 14.629-6.269 16.718-14.629s0-15.673-5.224-21.943l-105.535-102.4 25.078-145.241c1.045-8.359-2.090-15.673-8.359-20.898-6.269-4.18-14.629-5.224-21.943-2.090l-128.522 68.963-130.612-68.963c-3.135-1.045-6.269-2.090-9.404-2.090zM594.547 263.053l82.547-80.457c5.224-5.224 7.314-11.494 6.269-18.808l-19.853-113.894 102.4 54.335c6.269 3.135 13.584 3.135 19.853 0l102.4-54.335-19.853 113.894c-1.045 6.269 1.045 13.584 6.269 18.808l82.547 80.457-114.939 16.718c-7.314 1.045-12.539 5.224-15.673 11.494l-51.2 104.49-51.2-104.49c-3.135-6.269-9.404-10.449-15.673-11.494l-113.894-16.718z" />
<glyph unicode="&#xe90a;" glyph-name="thumb-down" horiz-adv-x="958" d="M466.024-64c-1.045 0-2.090 0-2.090 0-1.045 0-2.090 0-4.18 0-36.571 5.224-120.163 34.482-120.163 191.216 0 71.053 17.763 155.69 28.212 198.531h-226.743c-76.278 0-122.253 35.527-122.253 95.086 0 32.392 13.584 55.38 30.302 71.053-7.314 4.18-15.673 9.404-21.943 15.673-17.763 17.763-27.167 41.796-27.167 71.053 0 27.167 8.359 50.155 26.122 66.873 5.224 5.224 11.494 9.404 17.763 13.584-14.629 14.629-25.078 35.527-25.078 65.829 0 48.065 30.302 75.233 63.739 89.861-9.404 11.494-15.673 27.167-15.673 49.11 0 25.078 6.269 43.886 20.898 58.514 26.122 26.122 76.278 37.616 166.139 37.616h192.261c80.457 0 133.747-20.898 180.767-40.751 36.571-14.629 67.918-27.167 106.58-27.167h135.837c4.18 0 8.359-1.045 11.494-3.135s77.322-53.29 77.322-220.473c0-163.004-52.245-245.551-54.335-248.686-3.135-4.18-7.314-7.314-12.539-9.404-1.045 0-148.376-37.616-238.237-127.478-88.816-88.816-135.837-220.473-142.106-306.155-1.045-11.494-6.269-21.943-14.629-30.302-8.359-6.269-18.808-10.449-30.302-10.449zM107.624 520.098c10.449 0 19.853-8.359 20.898-18.808s-6.269-20.898-16.718-22.988c-5.224-1.045-50.155-10.449-50.155-57.469 0-35.527 27.167-53.29 80.457-53.29h253.91c6.269 0 12.539-3.135 16.718-8.359s5.224-11.494 3.135-17.763c0-1.045-33.437-122.253-33.437-213.159 0-112.849 45.976-144.196 84.637-149.42 1.045 0 1.045 0 2.090 1.045 0 0 1.045 1.045 1.045 2.090 7.314 94.041 58.514 237.192 154.645 333.322 85.682 85.682 214.204 126.433 248.686 135.837 11.494 21.943 43.886 95.086 43.886 219.429 0 120.163-40.751 169.273-54.335 182.857h-129.567c-47.020 0-83.592 14.629-122.253 30.302-44.931 15.673-91.951 34.482-165.094 34.482h-192.261c-75.233 0-119.118-8.359-135.837-25.078-6.269-6.269-9.404-15.673-9.404-29.257 0-32.392 26.122-36.571 34.482-37.616 10.449-1.045 18.808-10.449 18.808-21.943s-9.404-19.853-19.853-19.853c-3.135 0-80.457-4.18-80.457-60.604 0-45.976 39.706-50.155 47.020-51.2 11.494-1.045 19.853-10.449 19.853-21.943s-10.449-19.853-21.943-19.853c0 0-32.392 1.045-51.2-16.718-9.404-8.359-13.584-19.853-13.584-35.527 0-17.763 5.224-30.302 14.629-39.706 18.808-19.853 50.155-19.853 51.2-18.808-1.045 0-1.045 0 0 0z" />
<glyph unicode="&#xe90b;" glyph-name="thumb-down-alt" d="M411.756-20.884c-8.623 0-16.168 3.234-22.636 9.701l-39.882 35.571c-2.156 2.156-4.312 4.312-5.389 6.467-11.857 16.168-19.402 37.726-20.48 58.206 0 0 0 1.078 0 1.078v11.857c0 2.156 0 3.234 0 5.389 0 1.078 0 2.156 0 2.156l39.882 178.931h-256.539c-47.427 0-89.465 30.181-105.634 74.375 0 4.312-1.078 8.623-1.078 11.857v115.335c-1.078 14.013 1.078 26.947 5.389 39.882l135.815 320.135c17.246 39.882 56.051 66.829 100.244 66.829h405.288c61.44 0 111.023-50.661 111.023-111.023v-449.482c2.156-30.181-10.779-60.362-34.493-79.764v0l-287.798-287.798c-6.467-6.467-15.091-9.701-23.714-9.701zM418.223 20.076v0c0 0 0 0 0 0zM379.419 55.646l32.337-30.181 281.331 282.408c0 0 1.078 1.078 1.078 1.078l1.078 1.078c12.935 10.779 20.48 28.025 19.402 45.272 0 0 0 1.078 0 1.078v448.404c0 37.726-30.181 68.985-67.907 68.985h-405.288c-26.947 0-50.661-16.168-60.362-40.96l-134.737-319.057c-2.156-6.467-3.234-14.013-3.234-21.558 0 0 0-1.078 0-1.078v-114.257c9.701-25.869 35.571-44.194 63.596-44.194h268.396c9.701 0 17.246-3.234 23.714-9.701s9.701-15.091 9.701-23.714c0-2.156 0-5.389-1.078-7.545l-40.96-188.632c0 0 0 0 0 0v-11.857c1.078-12.935 5.389-24.792 12.935-35.571zM379.419 55.646v0c0 0 0 0 0 0s0 0 0 0zM375.107 289.549c0 0 0 0 0 0v0zM366.484 301.406c0 0 0 0 0 0v0zM21.558 374.703v0 0zM993.819 334.821h-155.217c-18.324 0-33.415 15.091-33.415 33.415v515.234c0 18.324 15.091 33.415 33.415 33.415h156.295c18.324 0 33.415-15.091 33.415-33.415v-516.312c-1.078-18.324-16.168-32.337-34.493-32.337zM848.303 377.937h136.893v495.832h-136.893v-495.832zM993.819 873.768v0 0z" />
<glyph unicode="&#xe90c;" glyph-name="thumb-up" horiz-adv-x="958" d="M704.261-64h-192.261c-81.502 0-133.747 20.898-180.767 40.751-36.571 14.629-67.918 27.167-106.58 27.167h-135.837c-4.18 0-8.359 1.045-11.494 3.135-4.18 2.090-77.322 53.29-77.322 220.473 0 163.004 52.245 245.551 54.335 248.686 3.135 4.18 7.314 7.314 12.539 9.404 1.045 0 148.376 37.616 238.237 127.478 84.637 84.637 135.837 218.384 142.106 306.155 1.045 11.494 6.269 21.943 14.629 30.302 9.404 7.314 19.853 11.494 32.392 11.494 1.045 0 2.090 0 3.135 0 45.976-8.359 121.208-42.841 121.208-192.261 0-71.053-17.763-155.69-28.212-197.486h226.743c76.278 0 122.253-35.527 122.253-95.086 0-32.392-13.584-55.38-30.302-71.053 7.314-4.18 15.673-9.404 21.943-15.673 17.763-17.763 27.167-40.751 27.167-70.008 0-27.167-8.359-50.155-26.122-66.873-5.224-5.224-11.494-9.404-17.763-13.584 14.629-14.629 25.078-35.527 25.078-65.829 0-48.065-30.302-75.233-63.739-89.861 9.404-12.539 16.718-28.212 16.718-50.155-1.045-80.457-75.233-97.176-188.082-97.176zM96.131 45.714h128.522c47.020 0 83.592-14.629 122.253-30.302 44.931-18.808 91.951-37.616 165.094-37.616h192.261c145.241 0 145.241 31.347 145.241 54.335 0 32.392-26.122 36.571-34.482 37.616-10.449 1.045-18.808 10.449-18.808 21.943s9.404 19.853 19.853 19.853c3.135 0 80.457 4.18 80.457 60.604 0 47.020-42.841 51.2-47.020 51.2-11.494 1.045-19.853 10.449-19.853 21.943 1.045 11.494 10.449 19.853 21.943 19.853 0 0 32.392-1.045 51.2 16.718 9.404 8.359 13.584 20.898 13.584 36.571 0 17.763-5.224 30.302-14.629 39.706-18.808 18.808-50.155 18.808-50.155 18.808s0 0 0 0c-10.449 0-19.853 8.359-20.898 18.808s6.269 20.898 16.718 22.988c5.224 1.045 50.155 10.449 50.155 57.469 0 35.527-27.167 53.29-80.457 53.29h-253.91c-6.269 0-12.539 3.135-16.718 8.359s-5.224 11.494-3.135 17.763c0 1.045 33.437 122.253 33.437 213.159 0 89.861-29.257 141.061-84.637 149.42-1.045 0-2.090-1.045-2.090-2.090-7.314-92.996-58.514-237.192-154.645-333.322-85.682-85.682-214.204-126.433-248.686-135.837-12.539-20.898-44.931-95.086-44.931-219.429 0-120.163 40.751-169.273 54.335-181.812z" />
<glyph unicode="&#xe90d;" glyph-name="thumb-up-alt" d="M381.575-20.884c-62.518 0-112.101 50.661-112.101 112.101v448.404c-1.078 30.181 10.779 60.362 34.493 79.764l287.798 287.798c12.935 12.935 33.415 12.935 46.349 0l39.882-35.571c2.156-2.156 4.312-4.312 5.389-6.467 11.857-17.246 19.402-37.726 20.48-59.284 0 0 0-1.078 0-1.078v-11.857c0-2.156 0-3.234 0-5.389 0-1.078 0-1.078 0-2.156l-38.804-178.931h256.539c47.427 0 89.465-30.181 105.634-74.375 1.078-4.312 2.156-7.545 2.156-11.857v-115.335c1.078-12.935-1.078-26.947-5.389-39.882 0 0 0-1.078 0-1.078l-137.971-317.979c-16.168-39.882-56.051-66.829-100.244-66.829h-404.211zM615.478 870.535l-281.331-282.408c0 0-1.078-1.078-1.078-1.078l-1.078-1.078c-12.935-11.857-20.48-28.025-19.402-45.272 0 0 0-1.078 0-1.078v-449.482c0-37.726 30.181-68.985 68.985-68.985h405.288c26.947 0 50.661 16.168 60.362 40.96l134.737 319.057c2.156 7.545 3.234 14.013 3.234 21.558 0 0 0 1.078 0 1.078v114.257c-9.701 25.869-35.571 44.194-63.596 44.194h-269.474c-8.623 0-17.246 3.234-23.714 9.701s-9.701 15.091-9.701 23.714c0 2.156 0 5.389 1.078 7.545l40.96 188.632c0 0 0 0 0 0v11.857c-1.078 12.935-5.389 24.792-12.935 35.571l-32.337 31.259zM1001.364 373.625v0 0zM1027.234 404.884v0 0zM652.126 606.451c0 0 0 0 0 0v0c0 0 0 0 0 0zM648.893 840.354c0 0 0 0 0 0v0zM647.815 841.432c0 0 0 0 0 0s0 0 0 0v0zM609.011 875.924c0 0 0 0 0 0v0zM189.709-20.884h-156.295c-18.324 0-33.415 15.091-33.415 33.415v516.312c0 18.324 15.091 33.415 33.415 33.415h156.295c18.324 0 33.415-15.091 33.415-33.415v-516.312c0-18.324-15.091-33.415-33.415-33.415zM43.116 22.232h136.893v496.909h-136.893v-496.909zM189.709 519.141v0 0z" />
<glyph unicode="&#xe90e;" glyph-name="trophy" horiz-adv-x="984" d="M494.237 228.571c-1.045 0-1.045 0-2.090 0h-6.269c-76.278 1.045-149.42 32.392-200.62 87.771-52.245 51.2-82.547 120.163-83.592 194.351v428.408c0 11.494 9.404 20.898 20.898 20.898h542.302c11.494 0 20.898-9.404 20.898-20.898v-428.408c0 0 0-1.045 0-1.045-1.045-19.853-3.135-38.661-7.314-58.514 0 0 0-1.045 0-1.045-3.135-9.404-6.269-19.853-9.404-31.347 0 0 0-1.045 0-1.045-15.673-38.661-39.706-74.188-70.008-103.445-54.335-54.335-128.522-85.682-204.8-85.682zM492.147 270.367c65.829 0 129.567 27.167 175.543 74.188 26.122 25.078 47.020 55.38 60.604 88.816 3.135 10.449 6.269 18.808 8.359 28.212 3.135 16.718 5.224 33.437 6.269 51.2v405.42h-500.506v-407.51c1.045-62.694 27.167-121.208 72.098-166.139 44.931-47.020 107.624-74.188 171.363-75.233h6.269zM742.922-64h-507.82c-11.494 0-20.898 9.404-20.898 20.898s9.404 20.898 20.898 20.898h507.82c11.494 0 20.898-9.404 20.898-20.898s-9.404-20.898-20.898-20.898zM485.878 43.624c-11.494 0-20.898 9.404-20.898 20.898v183.902c0 11.494 9.404 20.898 20.898 20.898s20.898-9.404 20.898-20.898v-183.902c0-11.494-9.404-20.898-20.898-20.898zM668.735-53.551c-11.494 0-20.898 9.404-20.898 20.898v76.278h-323.918v-76.278c0-11.494-9.404-20.898-20.898-20.898s-20.898 9.404-20.898 20.898v97.176c0 11.494 9.404 20.898 20.898 20.898h365.714c11.494 0 20.898-9.404 20.898-20.898v-97.176c0-11.494-9.404-20.898-20.898-20.898zM719.935 351.869c-6.269 0-12.539 3.135-16.718 8.359-6.269 9.404-4.18 21.943 5.224 29.257l235.102 169.273v299.886h-179.722c-11.494 0-20.898 9.404-20.898 20.898s9.404 20.898 20.898 20.898h199.576c11.494 0 20.898-9.404 20.898-20.898v-331.233c0-6.269-3.135-12.539-8.359-16.718l-244.506-175.543c-3.135-3.135-7.314-4.18-11.494-4.18zM265.404 351.869c-4.18 0-8.359 1.045-12.539 4.18l-244.506 175.543c-5.224 4.18-8.359 10.449-8.359 16.718v331.233c0 11.494 9.404 20.898 20.898 20.898h199.576c11.494 0 20.898-9.404 20.898-20.898s-9.404-20.898-20.898-20.898h-178.678v-299.886l235.102-169.273c9.404-6.269 11.494-19.853 5.224-29.257-4.18-5.224-10.449-8.359-16.718-8.359z" />
<glyph unicode="&#xe90f;" glyph-name="trophy-star" d="M424.691 436.143c-4.312 0-8.623 1.078-12.935 4.312-6.467 4.312-9.701 12.935-8.623 21.558l15.091 86.232-62.518 60.362c-5.389 5.389-7.545 14.013-5.389 21.558s9.701 14.013 17.246 15.091l86.232 12.935 38.804 78.686c3.234 7.545 10.779 11.857 19.402 11.857v0c8.623 0 16.168-4.312 19.402-11.857l38.804-78.686 86.232-12.935c8.623-1.078 15.091-6.467 17.246-15.091 2.156-7.545 0-16.168-5.389-21.558l-62.518-61.44 15.091-86.232c1.078-8.623-2.156-16.168-8.623-21.558-6.467-4.312-15.091-5.389-22.636-2.156l-77.608 40.96-77.608-40.96c-3.234 0-6.467-1.078-9.701-1.078zM512 525.608c3.234 0 6.467-1.078 9.701-2.156l49.583-26.947-9.701 53.895c-1.078 6.467 1.078 14.013 6.467 19.402l39.882 38.804-54.973 7.545c-7.545 1.078-12.935 5.389-16.168 11.857l-24.792 49.583-24.792-49.583c-3.234-6.467-9.701-10.779-16.168-11.857l-54.973-7.545 39.882-38.804c5.389-5.389 7.545-11.857 6.467-19.402l-9.701-53.895 48.505 25.869c4.312 2.156 7.545 3.234 10.779 3.234zM513.078 224.876c-1.078 0-1.078 0-2.156 0h-6.467c-76.531 1.078-149.827 32.337-201.566 88.387-52.817 51.739-82.998 120.724-84.076 196.177v430.080c0 11.857 9.701 21.558 21.558 21.558h543.259c11.857 0 21.558-9.701 21.558-21.558v-430.080c0 0 0-1.078 0-1.078-1.078-19.402-3.234-38.804-7.545-58.206 0 0 0-1.078 0-1.078-3.234-9.701-6.467-20.48-9.701-31.259 0 0 0-1.078-1.078-2.156-15.091-38.804-39.882-74.375-70.063-103.478-51.739-56.051-126.114-87.309-203.722-87.309zM512 267.992c0 0 1.078 0 1.078 0 65.752 0 128.269 26.947 173.541 74.375 25.869 24.792 46.349 54.973 60.362 88.387 3.234 9.701 6.467 19.402 8.623 28.025 3.234 17.246 5.389 33.415 6.467 50.661v407.444h-500.143v-408.522c1.078-62.518 26.947-121.802 72.219-165.996 45.272-47.427 107.789-74.375 171.385-75.453h6.467zM244.682 431.832c-3.234 0-6.467 1.078-9.701 2.156-112.101 56.051-169.229 178.931-170.307 364.328 0 5.389 2.156 10.779 6.467 15.091s9.701 6.467 15.091 6.467h151.983c11.857 0 21.558-9.701 21.558-21.558s-9.701-21.558-21.558-21.558h-130.425c4.312-155.217 53.895-257.617 146.594-303.966 10.779-5.389 15.091-18.324 9.701-29.103-3.234-7.545-10.779-11.857-19.402-11.857zM779.318 431.832c-7.545 0-15.091 4.312-19.402 11.857-5.389 10.779-1.078 23.714 9.701 29.103 92.699 46.349 141.204 146.594 146.594 303.966h-129.347c-11.857 0-21.558 9.701-21.558 21.558s9.701 21.558 21.558 21.558h150.905c5.389 0 10.779-2.156 15.091-6.467s6.467-9.701 6.467-15.091c-2.156-185.398-59.284-308.278-170.307-364.328-3.234-1.078-6.467-2.156-9.701-2.156zM762.072-68.312h-508.766c-11.857 0-21.558 9.701-21.558 21.558s9.701 21.558 21.558 21.558h508.766c11.857 0 21.558-9.701 21.558-21.558s-9.701-21.558-21.558-21.558zM505.533-56.455c-11.857 0-21.558 9.701-21.558 21.558v281.331c0 11.857 9.701 21.558 21.558 21.558s21.558-9.701 21.558-21.558v-281.331c0-11.857-9.701-21.558-21.558-21.558z" />
<glyph unicode="&#xe910;" glyph-name="calendar" d="M992.33-64h-960.66c-17.946 0-31.67 13.724-31.67 31.67v626.012c0 17.946 13.724 31.67 31.67 31.67h960.66c17.946 0 31.67-13.724 31.67-31.67v-626.012c0-17.946-13.724-31.67-31.67-31.67zM42.227-21.773h939.546v604.899h-939.546v-604.899zM992.33 583.126v0 0zM333.592 739.365c-11.612 0-21.113 9.501-21.113 21.113v178.408c0 11.612 9.501 21.113 21.113 21.113s21.113-9.501 21.113-21.113v-178.408c0-11.612-9.501-21.113-21.113-21.113zM690.408 739.365c-11.612 0-21.113 9.501-21.113 21.113v178.408c0 11.612 9.501 21.113 21.113 21.113s21.113-9.501 21.113-21.113v-178.408c0-11.612-9.501-21.113-21.113-21.113zM992.33 583.126h-960.66c-17.946 0-31.67 13.724-31.67 31.67v223.802c0 17.946 13.724 31.67 31.67 31.67h960.66c17.946 0 31.67-13.724 31.67-31.67v-223.802c0-16.891-13.724-31.67-31.67-31.67zM42.227 625.353h939.546v202.689h-939.546v-202.689zM992.33 828.041v0 0zM253.361 260.091c-58.062 0-105.567 47.505-105.567 105.567s47.505 105.567 105.567 105.567 105.567-47.505 105.567-105.567-47.505-105.567-105.567-105.567zM253.361 428.998c-34.837 0-63.34-28.503-63.34-63.34s28.503-63.34 63.34-63.34 63.34 28.503 63.34 63.34-28.503 63.34-63.34 63.34zM583.786 344.544h-116.124c-11.612 0-21.113 9.501-21.113 21.113s9.501 21.113 21.113 21.113h116.124c11.612 0 21.113-9.501 21.113-21.113s-9.501-21.113-21.113-21.113zM855.093 344.544h-116.124c-11.612 0-21.113 9.501-21.113 21.113s9.501 21.113 21.113 21.113h116.124c11.612 0 21.113-9.501 21.113-21.113s-9.501-21.113-21.113-21.113zM583.786 133.41h-116.124c-11.612 0-21.113 9.501-21.113 21.113s9.501 21.113 21.113 21.113h116.124c11.612 0 21.113-9.501 21.113-21.113s-9.501-21.113-21.113-21.113zM311.423 133.41h-116.124c-11.612 0-21.113 9.501-21.113 21.113s9.501 21.113 21.113 21.113h116.124c11.612 0 21.113-9.501 21.113-21.113s-9.501-21.113-21.113-21.113zM855.093 133.41h-116.124c-11.612 0-21.113 9.501-21.113 21.113s9.501 21.113 21.113 21.113h116.124c11.612 0 21.113-9.501 21.113-21.113s-9.501-21.113-21.113-21.113z" />
<glyph unicode="&#xe911;" glyph-name="calendar-17" d="M992.33-64h-960.66c-17.946 0-31.67 13.724-31.67 31.67v870.928c0 17.946 13.724 31.67 31.67 31.67h960.66c17.946 0 31.67-13.724 31.67-31.67v-870.928c0-17.946-13.724-31.67-31.67-31.67zM42.227-21.773h939.546v849.814h-939.546v-849.814zM992.33 828.041v0 0zM333.592 739.365c-11.612 0-21.113 9.501-21.113 21.113v178.408c0 11.612 9.501 21.113 21.113 21.113s21.113-9.501 21.113-21.113v-178.408c0-11.612-9.501-21.113-21.113-21.113zM690.408 739.365c-11.612 0-21.113 9.501-21.113 21.113v178.408c0 11.612 9.501 21.113 21.113 21.113s21.113-9.501 21.113-21.113v-178.408c0-11.612-9.501-21.113-21.113-21.113zM992.33 583.126h-960.66c-17.946 0-31.67 13.724-31.67 31.67v223.802c0 17.946 13.724 31.67 31.67 31.67h960.66c17.946 0 31.67-13.724 31.67-31.67v-223.802c0-16.891-13.724-31.67-31.67-31.67zM42.227 625.353h939.546v202.689h-939.546v-202.689zM992.33 828.041v0 0zM422.268 102.796c-11.612 0-21.113 9.501-21.113 21.113v253.361l-50.672-38.004c-9.501-7.39-22.169-5.278-29.559 4.223s-5.278 22.169 4.223 29.559l84.454 63.34c6.334 5.278 14.779 5.278 22.169 2.111s11.612-10.557 11.612-19.002v-295.588c0-11.612-9.501-21.113-21.113-21.113zM548.948 102.796c-3.167 0-6.334 1.056-9.501 2.111-10.557 5.278-14.779 17.946-9.501 28.503l133.014 264.973h-166.796c-11.612 0-21.113 9.501-21.113 21.113s9.501 21.113 21.113 21.113h200.577c7.39 0 13.724-4.223 17.946-9.501 4.223-6.334 4.223-13.724 1.056-20.058l-147.794-295.588c-4.223-8.445-11.612-12.668-19.002-12.668z" />
<glyph unicode="&#xe912;" glyph-name="calendar-accept" horiz-adv-x="1212" d="M568.889 210.551c-6.184 0-12.367 2.473-17.314 7.42l-132.329 131.092c-9.894 9.894-9.894 24.734 0 34.628s24.734 9.894 34.628 0l113.778-113.778 226.319 226.319c9.894 9.894 24.734 9.894 34.628 0s9.894-24.734 0-34.628l-242.396-243.633c-4.947-4.947-11.13-7.42-17.314-7.42zM868.174 835.092h-524.367c-13.604 0-24.734 11.13-24.734 24.734s11.13 24.734 24.734 24.734h524.367c13.604 0 24.734-11.13 24.734-24.734s-11.13-24.734-24.734-24.734zM1187.246-64h-1162.512c-13.604 0-24.734 11.13-24.734 24.734v899.092c0 13.604 11.13 24.734 24.734 24.734h206.531c13.604 0 24.734-11.13 24.734-24.734s-11.13-24.734-24.734-24.734h-181.797v-850.86h1113.043v850.86h-181.797c-13.604 0-24.734 11.13-24.734 24.734s11.13 24.734 24.734 24.734h206.531c13.604 0 24.734-11.13 24.734-24.734v-900.329c0-12.367-11.13-23.498-24.734-23.498zM343.807 760.889h-112.541c-13.604 0-24.734 11.13-24.734 24.734v149.643c0 13.604 11.13 24.734 24.734 24.734h112.541c13.604 0 24.734-11.13 24.734-24.734v-149.643c0-13.604-11.13-24.734-24.734-24.734zM256 810.357h63.072v100.174h-63.072v-100.174zM980.715 760.889h-112.541c-13.604 0-24.734 11.13-24.734 24.734v149.643c0 13.604 11.13 24.734 24.734 24.734h112.541c13.604 0 24.734-11.13 24.734-24.734v-149.643c0-13.604-11.13-24.734-24.734-24.734zM892.908 810.357h63.072v100.174h-63.072v-100.174zM1187.246 685.449h-1162.512c-13.604 0-24.734 11.13-24.734 24.734s11.13 24.734 24.734 24.734h1162.512c13.604 0 24.734-11.13 24.734-24.734s-11.13-24.734-24.734-24.734z" />
<glyph unicode="&#xe913;" glyph-name="calendar-add" horiz-adv-x="1212" d="M868.174 835.092h-524.367c-13.604 0-24.734 11.13-24.734 24.734s11.13 24.734 24.734 24.734h524.367c13.604 0 24.734-11.13 24.734-24.734s-11.13-24.734-24.734-24.734zM1187.246-64h-1162.512c-13.604 0-24.734 11.13-24.734 24.734v899.092c0 13.604 11.13 24.734 24.734 24.734h206.531c13.604 0 24.734-11.13 24.734-24.734s-11.13-24.734-24.734-24.734h-181.797v-850.86h1113.043v850.86h-181.797c-13.604 0-24.734 11.13-24.734 24.734s11.13 24.734 24.734 24.734h206.531c13.604 0 24.734-11.13 24.734-24.734v-900.329c0-12.367-11.13-23.498-24.734-23.498zM343.807 760.889h-112.541c-13.604 0-24.734 11.13-24.734 24.734v149.643c0 13.604 11.13 24.734 24.734 24.734h112.541c13.604 0 24.734-11.13 24.734-24.734v-149.643c0-13.604-11.13-24.734-24.734-24.734zM256 810.357h63.072v100.174h-63.072v-100.174zM980.715 760.889h-112.541c-13.604 0-24.734 11.13-24.734 24.734v149.643c0 13.604 11.13 24.734 24.734 24.734h112.541c13.604 0 24.734-11.13 24.734-24.734v-149.643c0-13.604-11.13-24.734-24.734-24.734zM892.908 810.357h63.072v100.174h-63.072v-100.174zM605.99 141.295c-13.604 0-24.734 11.13-24.734 24.734v337.623c0 13.604 11.13 24.734 24.734 24.734s24.734-11.13 24.734-24.734v-337.623c0-13.604-11.13-24.734-24.734-24.734zM774.184 310.725h-336.386c-13.604 0-24.734 11.13-24.734 24.734s11.13 24.734 24.734 24.734h337.623c13.604 0 24.734-11.13 24.734-24.734s-12.367-24.734-25.971-24.734zM1187.246 685.449h-1162.512c-13.604 0-24.734 11.13-24.734 24.734s11.13 24.734 24.734 24.734h1162.512c13.604 0 24.734-11.13 24.734-24.734s-11.13-24.734-24.734-24.734z" />
<glyph unicode="&#xe914;" glyph-name="calendar-arrow-down" horiz-adv-x="1212" d="M605.99 141.295c-6.184 0-12.367 2.473-17.314 7.42l-149.643 150.879c-9.894 9.894-9.894 24.734 0 34.628s24.734 9.894 34.628 0l132.329-132.329 132.329 132.329c9.894 9.894 24.734 9.894 34.628 0s9.894-24.734 0-34.628l-149.643-150.879c-4.947-4.947-11.13-7.42-17.314-7.42zM605.99 141.295c-13.604 0-24.734 11.13-24.734 24.734v375.961c0 13.604 11.13 24.734 24.734 24.734s24.734-11.13 24.734-24.734v-374.725c0-14.841-11.13-25.971-24.734-25.971zM868.174 835.092h-524.367c-13.604 0-24.734 11.13-24.734 24.734s11.13 24.734 24.734 24.734h524.367c13.604 0 24.734-11.13 24.734-24.734s-11.13-24.734-24.734-24.734zM1187.246-64h-1162.512c-13.604 0-24.734 11.13-24.734 24.734v899.092c0 13.604 11.13 24.734 24.734 24.734h206.531c13.604 0 24.734-11.13 24.734-24.734s-11.13-24.734-24.734-24.734h-181.797v-850.86h1113.043v850.86h-181.797c-13.604 0-24.734 11.13-24.734 24.734s11.13 24.734 24.734 24.734h206.531c13.604 0 24.734-11.13 24.734-24.734v-900.329c0-12.367-11.13-23.498-24.734-23.498zM343.807 760.889h-112.541c-13.604 0-24.734 11.13-24.734 24.734v149.643c0 13.604 11.13 24.734 24.734 24.734h112.541c13.604 0 24.734-11.13 24.734-24.734v-149.643c0-13.604-11.13-24.734-24.734-24.734zM256 810.357h63.072v100.174h-63.072v-100.174zM980.715 760.889h-112.541c-13.604 0-24.734 11.13-24.734 24.734v149.643c0 13.604 11.13 24.734 24.734 24.734h112.541c13.604 0 24.734-11.13 24.734-24.734v-149.643c0-13.604-11.13-24.734-24.734-24.734zM892.908 810.357h63.072v100.174h-63.072v-100.174zM1187.246 685.449h-1162.512c-13.604 0-24.734 11.13-24.734 24.734s11.13 24.734 24.734 24.734h1162.512c13.604 0 24.734-11.13 24.734-24.734s-11.13-24.734-24.734-24.734z" />
<glyph unicode="&#xe915;" glyph-name="calendar-back" horiz-adv-x="1212" d="M868.174 835.092h-524.367c-13.604 0-24.734 11.13-24.734 24.734s11.13 24.734 24.734 24.734h524.367c13.604 0 24.734-11.13 24.734-24.734s-11.13-24.734-24.734-24.734zM1187.246-64h-1162.512c-13.604 0-24.734 11.13-24.734 24.734v899.092c0 13.604 11.13 24.734 24.734 24.734h206.531c13.604 0 24.734-11.13 24.734-24.734s-11.13-24.734-24.734-24.734h-181.797v-850.86h1113.043v850.86h-181.797c-13.604 0-24.734 11.13-24.734 24.734s11.13 24.734 24.734 24.734h206.531c13.604 0 24.734-11.13 24.734-24.734v-900.329c0-12.367-11.13-23.498-24.734-23.498zM343.807 760.889h-112.541c-13.604 0-24.734 11.13-24.734 24.734v149.643c0 13.604 11.13 24.734 24.734 24.734h112.541c13.604 0 24.734-11.13 24.734-24.734v-149.643c0-13.604-11.13-24.734-24.734-24.734zM256 810.357h63.072v100.174h-63.072v-100.174zM980.715 760.889h-112.541c-13.604 0-24.734 11.13-24.734 24.734v149.643c0 13.604 11.13 24.734 24.734 24.734h112.541c13.604 0 24.734-11.13 24.734-24.734v-149.643c0-13.604-11.13-24.734-24.734-24.734zM892.908 810.357h63.072v100.174h-63.072v-100.174zM1187.246 685.449h-1162.512c-13.604 0-24.734 11.13-24.734 24.734s11.13 24.734 24.734 24.734h1162.512c13.604 0 24.734-11.13 24.734-24.734s-11.13-24.734-24.734-24.734zM568.889 161.082c-6.184 0-12.367 2.473-17.314 7.42l-150.879 149.643c-4.947 4.947-7.42 11.13-7.42 17.314s2.473 12.367 7.42 17.314l150.879 149.643c9.894 9.894 24.734 9.894 34.628 0s9.894-24.734 0-34.628l-132.329-132.329 132.329-132.329c9.894-9.894 9.894-24.734 0-34.628-4.947-4.947-11.13-7.42-17.314-7.42zM793.971 310.725h-375.961c-13.604 0-24.734 11.13-24.734 24.734s11.13 24.734 24.734 24.734h374.725c13.604 0 24.734-11.13 24.734-24.734s-9.894-24.734-23.498-24.734z" />
<glyph unicode="&#xe916;" glyph-name="calendar-close" horiz-adv-x="1212" d="M737.082 177.159c-6.184 0-12.367 2.473-17.314 7.42l-262.184 262.184c-9.894 9.894-9.894 24.734 0 34.628s24.734 9.894 34.628 0l262.184-262.184c9.894-9.894 9.894-24.734 0-34.628-4.947-4.947-11.13-7.42-17.314-7.42zM474.899 177.159c-6.184 0-12.367 2.473-17.314 7.42-9.894 9.894-9.894 24.734 0 34.628l262.184 262.184c9.894 9.894 24.734 9.894 34.628 0s9.894-24.734 0-34.628l-262.184-262.184c-4.947-4.947-11.13-7.42-17.314-7.42zM868.174 835.092h-524.367c-13.604 0-24.734 11.13-24.734 24.734s11.13 24.734 24.734 24.734h524.367c13.604 0 24.734-11.13 24.734-24.734s-11.13-24.734-24.734-24.734zM1187.246-64h-1162.512c-13.604 0-24.734 11.13-24.734 24.734v899.092c0 13.604 11.13 24.734 24.734 24.734h206.531c13.604 0 24.734-11.13 24.734-24.734s-11.13-24.734-24.734-24.734h-181.797v-850.86h1113.043v850.86h-181.797c-13.604 0-24.734 11.13-24.734 24.734s11.13 24.734 24.734 24.734h206.531c13.604 0 24.734-11.13 24.734-24.734v-900.329c0-12.367-11.13-23.498-24.734-23.498zM343.807 760.889h-112.541c-13.604 0-24.734 11.13-24.734 24.734v149.643c0 13.604 11.13 24.734 24.734 24.734h112.541c13.604 0 24.734-11.13 24.734-24.734v-149.643c0-13.604-11.13-24.734-24.734-24.734zM256 810.357h63.072v100.174h-63.072v-100.174zM980.715 760.889h-112.541c-13.604 0-24.734 11.13-24.734 24.734v149.643c0 13.604 11.13 24.734 24.734 24.734h112.541c13.604 0 24.734-11.13 24.734-24.734v-149.643c0-13.604-11.13-24.734-24.734-24.734zM892.908 810.357h63.072v100.174h-63.072v-100.174zM1187.246 685.449h-1162.512c-13.604 0-24.734 11.13-24.734 24.734s11.13 24.734 24.734 24.734h1162.512c13.604 0 24.734-11.13 24.734-24.734s-11.13-24.734-24.734-24.734z" />
<glyph unicode="&#xe917;" glyph-name="calendar-date" d="M992.33-64h-960.66c-17.946 0-31.67 13.724-31.67 31.67v870.928c0 17.946 13.724 31.67 31.67 31.67h960.66c17.946 0 31.67-13.724 31.67-31.67v-870.928c0-17.946-13.724-31.67-31.67-31.67zM42.227-21.773h939.546v849.814h-939.546v-849.814zM992.33 828.041v0 0zM333.592 739.365c-11.612 0-21.113 9.501-21.113 21.113v178.408c0 11.612 9.501 21.113 21.113 21.113s21.113-9.501 21.113-21.113v-178.408c0-11.612-9.501-21.113-21.113-21.113zM690.408 739.365c-11.612 0-21.113 9.501-21.113 21.113v178.408c0 11.612 9.501 21.113 21.113 21.113s21.113-9.501 21.113-21.113v-178.408c0-11.612-9.501-21.113-21.113-21.113zM320.924 443.777h-145.682c-11.612 0-21.113 9.501-21.113 21.113v144.627c0 11.612 9.501 21.113 21.113 21.113h144.627c11.612 0 21.113-9.501 21.113-21.113v-144.627c1.056-11.612-8.445-21.113-20.058-21.113zM196.355 486.004h102.4v102.4h-102.4v-102.4zM584.841 443.777h-145.682c-11.612 0-21.113 9.501-21.113 21.113v144.627c0 11.612 9.501 21.113 21.113 21.113h144.627c11.612 0 21.113-9.501 21.113-21.113v-144.627c1.056-11.612-8.445-21.113-20.058-21.113zM460.272 486.004h102.4v102.4h-102.4v-102.4zM848.759 443.777h-145.682c-11.612 0-21.113 9.501-21.113 21.113v144.627c0 11.612 9.501 21.113 21.113 21.113h144.627c11.612 0 21.113-9.501 21.113-21.113v-144.627c1.056-11.612-8.445-21.113-20.058-21.113zM724.19 486.004h102.4v102.4h-102.4v-102.4zM320.924 190.416h-145.682c-11.612 0-21.113 9.501-21.113 21.113v144.627c0 11.612 9.501 21.113 21.113 21.113h144.627c11.612 0 21.113-9.501 21.113-21.113v-144.627c1.056-11.612-8.445-21.113-20.058-21.113zM196.355 232.643h102.4v102.4h-102.4v-102.4zM584.841 190.416h-145.682c-11.612 0-21.113 9.501-21.113 21.113v144.627c0 11.612 9.501 21.113 21.113 21.113h144.627c11.612 0 21.113-9.501 21.113-21.113v-144.627c1.056-11.612-8.445-21.113-20.058-21.113zM460.272 232.643h102.4v102.4h-102.4v-102.4zM848.759 190.416h-145.682c-11.612 0-21.113 9.501-21.113 21.113v144.627c0 11.612 9.501 21.113 21.113 21.113h144.627c11.612 0 21.113-9.501 21.113-21.113v-144.627c1.056-11.612-8.445-21.113-20.058-21.113zM724.19 232.643h102.4v102.4h-102.4v-102.4z" />
<glyph unicode="&#xe918;" glyph-name="calendar-disablesvg" horiz-adv-x="1212" d="M868.174 835.092h-524.367c-13.604 0-24.734 11.13-24.734 24.734s11.13 24.734 24.734 24.734h524.367c13.604 0 24.734-11.13 24.734-24.734s-11.13-24.734-24.734-24.734zM1187.246-64h-1162.512c-13.604 0-24.734 11.13-24.734 24.734v899.092c0 13.604 11.13 24.734 24.734 24.734h206.531c13.604 0 24.734-11.13 24.734-24.734s-11.13-24.734-24.734-24.734h-181.797v-850.86h1113.043v850.86h-181.797c-13.604 0-24.734 11.13-24.734 24.734s11.13 24.734 24.734 24.734h206.531c13.604 0 24.734-11.13 24.734-24.734v-900.329c0-12.367-11.13-23.498-24.734-23.498zM343.807 760.889h-112.541c-13.604 0-24.734 11.13-24.734 24.734v149.643c0 13.604 11.13 24.734 24.734 24.734h112.541c13.604 0 24.734-11.13 24.734-24.734v-149.643c0-13.604-11.13-24.734-24.734-24.734zM256 810.357h63.072v100.174h-63.072v-100.174zM980.715 760.889h-112.541c-13.604 0-24.734 11.13-24.734 24.734v149.643c0 13.604 11.13 24.734 24.734 24.734h112.541c13.604 0 24.734-11.13 24.734-24.734v-149.643c0-13.604-11.13-24.734-24.734-24.734zM892.908 810.357h63.072v100.174h-63.072v-100.174zM605.99 141.295c-106.357 0-192.928 86.57-192.928 192.928s86.57 192.928 192.928 192.928 192.928-86.57 192.928-192.928c0-105.121-86.57-192.928-192.928-192.928zM605.99 478.918c-79.15 0-143.459-64.309-143.459-143.459s64.309-143.459 143.459-143.459c79.15 0 143.459 64.309 143.459 143.459s-64.309 143.459-143.459 143.459zM721.005 194.473c-6.184 0-12.367 2.473-17.314 7.42l-231.266 231.266c-9.894 9.894-9.894 24.734 0 34.628s24.734 9.894 34.628 0l231.266-231.266c9.894-9.894 9.894-24.734 0-34.628-3.71-4.947-9.894-7.42-17.314-7.42zM1187.246 685.449h-1162.512c-13.604 0-24.734 11.13-24.734 24.734s11.13 24.734 24.734 24.734h1162.512c13.604 0 24.734-11.13 24.734-24.734s-11.13-24.734-24.734-24.734z" />
<glyph unicode="&#xe919;" glyph-name="calendar-edit" horiz-adv-x="1212" d="M868.174 835.092h-524.367c-13.604 0-24.734 11.13-24.734 24.734s11.13 24.734 24.734 24.734h524.367c13.604 0 24.734-11.13 24.734-24.734s-11.13-24.734-24.734-24.734zM1187.246-64h-1162.512c-13.604 0-24.734 11.13-24.734 24.734v899.092c0 13.604 11.13 24.734 24.734 24.734h206.531c13.604 0 24.734-11.13 24.734-24.734s-11.13-24.734-24.734-24.734h-181.797v-850.86h1113.043v850.86h-181.797c-13.604 0-24.734 11.13-24.734 24.734s11.13 24.734 24.734 24.734h206.531c13.604 0 24.734-11.13 24.734-24.734v-900.329c0-12.367-11.13-23.498-24.734-23.498zM343.807 760.889h-112.541c-13.604 0-24.734 11.13-24.734 24.734v149.643c0 13.604 11.13 24.734 24.734 24.734h112.541c13.604 0 24.734-11.13 24.734-24.734v-149.643c0-13.604-11.13-24.734-24.734-24.734zM256 810.357h63.072v100.174h-63.072v-100.174zM980.715 760.889h-112.541c-13.604 0-24.734 11.13-24.734 24.734v149.643c0 13.604 11.13 24.734 24.734 24.734h112.541c13.604 0 24.734-11.13 24.734-24.734v-149.643c0-13.604-11.13-24.734-24.734-24.734zM892.908 810.357h63.072v100.174h-63.072v-100.174zM1187.246 685.449h-1162.512c-13.604 0-24.734 11.13-24.734 24.734s11.13 24.734 24.734 24.734h1162.512c13.604 0 24.734-11.13 24.734-24.734s-11.13-24.734-24.734-24.734zM418.010 132.638c-6.184 0-12.367 2.473-17.314 7.42-6.184 6.184-8.657 14.841-6.184 22.261l18.551 93.99c1.237 4.947 3.71 8.657 6.184 12.367l280.734 280.734c9.894 9.894 24.734 9.894 34.628 0l75.44-75.44c4.947-4.947 7.42-11.13 7.42-17.314s-2.473-12.367-7.42-17.314l-280.734-280.734c-3.71-3.71-7.42-6.184-12.367-6.184l-93.99-18.551c-1.237-1.237-2.473-1.237-4.947-1.237zM460.058 238.995l-9.894-49.469 49.469 9.894 258.473 258.473-39.575 39.575-258.473-258.473zM737.082 376.271c-6.184 0-12.367 2.473-17.314 7.42l-75.44 75.44c-9.894 9.894-9.894 24.734 0 34.628s24.734 9.894 34.628 0l75.44-75.44c9.894-9.894 9.894-24.734 0-34.628-4.947-4.947-11.13-7.42-17.314-7.42z" />
<glyph unicode="&#xe91a;" glyph-name="calendar-empty" horiz-adv-x="1212" d="M868.174 835.092h-524.367c-13.604 0-24.734 11.13-24.734 24.734s11.13 24.734 24.734 24.734h524.367c13.604 0 24.734-11.13 24.734-24.734s-11.13-24.734-24.734-24.734zM1187.246-64h-1162.512c-13.604 0-24.734 11.13-24.734 24.734v899.092c0 13.604 11.13 24.734 24.734 24.734h206.531c13.604 0 24.734-11.13 24.734-24.734s-11.13-24.734-24.734-24.734h-181.797v-850.86h1113.043v850.86h-181.797c-13.604 0-24.734 11.13-24.734 24.734s11.13 24.734 24.734 24.734h206.531c13.604 0 24.734-11.13 24.734-24.734v-900.329c0-12.367-11.13-23.498-24.734-23.498zM343.807 760.889h-112.541c-13.604 0-24.734 11.13-24.734 24.734v149.643c0 13.604 11.13 24.734 24.734 24.734h112.541c13.604 0 24.734-11.13 24.734-24.734v-149.643c0-13.604-11.13-24.734-24.734-24.734zM256 810.357h63.072v100.174h-63.072v-100.174zM980.715 760.889h-112.541c-13.604 0-24.734 11.13-24.734 24.734v149.643c0 13.604 11.13 24.734 24.734 24.734h112.541c13.604 0 24.734-11.13 24.734-24.734v-149.643c0-13.604-11.13-24.734-24.734-24.734zM892.908 810.357h63.072v100.174h-63.072v-100.174zM1187.246 685.449h-1162.512c-13.604 0-24.734 11.13-24.734 24.734s11.13 24.734 24.734 24.734h1162.512c13.604 0 24.734-11.13 24.734-24.734s-11.13-24.734-24.734-24.734z" />
<glyph unicode="&#xe91b;" glyph-name="calendar-favourite" horiz-adv-x="1212" d="M868.174 835.092h-524.367c-13.604 0-24.734 11.13-24.734 24.734s11.13 24.734 24.734 24.734h525.604c13.604 0 24.734-11.13 24.734-24.734s-12.367-24.734-25.971-24.734zM1187.246-64h-1162.512c-13.604 0-24.734 11.13-24.734 24.734v899.092c0 13.604 11.13 24.734 24.734 24.734h206.531c13.604 0 24.734-11.13 24.734-24.734s-11.13-24.734-24.734-24.734h-181.797v-850.86h1113.043v850.86h-181.797c-13.604 0-24.734 11.13-24.734 24.734s11.13 24.734 24.734 24.734h206.531c13.604 0 24.734-11.13 24.734-24.734v-900.329c0-12.367-11.13-23.498-24.734-23.498zM343.807 760.889h-112.541c-13.604 0-24.734 11.13-24.734 24.734v149.643c0 13.604 11.13 24.734 24.734 24.734h112.541c13.604 0 24.734-11.13 24.734-24.734v-149.643c0-13.604-11.13-24.734-24.734-24.734zM256 810.357h63.072v100.174h-63.072v-100.174zM980.715 760.889h-112.541c-13.604 0-24.734 11.13-24.734 24.734v149.643c0 13.604 11.13 24.734 24.734 24.734h112.541c13.604 0 24.734-11.13 24.734-24.734v-149.643c0-13.604-11.13-24.734-24.734-24.734zM892.908 810.357h63.072v100.174h-63.072v-100.174zM1187.246 685.449h-1162.512c-13.604 0-24.734 11.13-24.734 24.734s11.13 24.734 24.734 24.734h1162.512c13.604 0 24.734-11.13 24.734-24.734s-11.13-24.734-24.734-24.734zM490.976 141.295c-4.947 0-9.894 1.237-14.841 4.947-8.657 6.184-12.367 17.314-8.657 27.208l34.628 113.778-97.7 64.309c-8.657 6.184-13.604 17.314-9.894 27.208s12.367 17.314 23.498 17.314h117.488l46.995 133.565c3.71 9.894 12.367 16.077 23.498 16.077s19.787-6.184 23.498-16.077l50.705-133.565h113.778c11.13 0 21.024-7.42 23.498-17.314 3.71-9.894-1.237-22.261-9.894-27.208l-97.7-65.546 32.155-113.778c2.473-9.894-1.237-21.024-9.894-27.208s-19.787-6.184-28.444 0l-97.7 66.783-101.411-65.546c-3.71-3.71-8.657-4.947-13.604-4.947zM499.633 347.826l44.522-29.681c8.657-6.184 13.604-17.314 9.894-27.208l-19.787-65.546 58.126 38.338c8.657 4.947 18.551 4.947 27.208 0l55.652-37.101-18.551 66.783c-2.473 9.894 1.237 21.024 9.894 27.208l44.522 29.681h-49.469c-9.894 0-19.787 6.184-23.498 16.077l-32.155 86.57-29.681-85.333c-3.71-9.894-12.367-16.077-23.498-16.077h-53.179z" />
<glyph unicode="&#xe91c;" glyph-name="calendar-flag" horiz-adv-x="1212" d="M868.174 835.092h-524.367c-13.604 0-24.734 11.13-24.734 24.734s11.13 24.734 24.734 24.734h524.367c13.604 0 24.734-11.13 24.734-24.734s-11.13-24.734-24.734-24.734zM1187.246-64h-1162.512c-13.604 0-24.734 11.13-24.734 24.734v899.092c0 13.604 11.13 24.734 24.734 24.734h206.531c13.604 0 24.734-11.13 24.734-24.734s-11.13-24.734-24.734-24.734h-181.797v-850.86h1113.043v850.86h-181.797c-13.604 0-24.734 11.13-24.734 24.734s11.13 24.734 24.734 24.734h206.531c13.604 0 24.734-11.13 24.734-24.734v-900.329c0-12.367-11.13-23.498-24.734-23.498zM343.807 760.889h-112.541c-13.604 0-24.734 11.13-24.734 24.734v149.643c0 13.604 11.13 24.734 24.734 24.734h112.541c13.604 0 24.734-11.13 24.734-24.734v-149.643c0-13.604-11.13-24.734-24.734-24.734zM256 810.357h63.072v100.174h-63.072v-100.174zM980.715 760.889h-112.541c-13.604 0-24.734 11.13-24.734 24.734v149.643c0 13.604 11.13 24.734 24.734 24.734h112.541c13.604 0 24.734-11.13 24.734-24.734v-149.643c0-13.604-11.13-24.734-24.734-24.734zM892.908 810.357h63.072v100.174h-63.072v-100.174zM1187.246 685.449h-1162.512c-13.604 0-24.734 11.13-24.734 24.734s11.13 24.734 24.734 24.734h1162.512c13.604 0 24.734-11.13 24.734-24.734s-11.13-24.734-24.734-24.734zM512 85.643c-13.604 0-24.734 11.13-24.734 24.734v431.614c0 13.604 11.13 24.734 24.734 24.734s24.734-11.13 24.734-24.734v-431.614c0-13.604-11.13-24.734-24.734-24.734zM793.971 310.725h-281.971c-13.604 0-24.734 11.13-24.734 24.734s11.13 24.734 24.734 24.734h236.213l-23.498 37.101c-4.947 8.657-4.947 18.551 0 25.971l23.498 37.101h-236.213c-13.604 0-24.734 11.13-24.734 24.734s11.13 24.734 24.734 24.734h280.734c8.657 0 17.314-4.947 22.261-12.367s3.71-17.314-1.237-24.734l-38.338-61.836 38.338-61.836c4.947-7.42 4.947-17.314 1.237-24.734-3.71-8.657-12.367-13.604-21.024-13.604z" />
<glyph unicode="&#xe91d;" glyph-name="calendar-refresh" horiz-adv-x="1212" d="M681.43 141.295h-75.44c-100.174 0-174.377 102.647-174.377 192.928 0 13.604 11.13 24.734 24.734 24.734s24.734-11.13 24.734-24.734c0-66.783 54.415-143.459 124.908-143.459h75.44c13.604 0 24.734-11.13 24.734-24.734s-11.13-24.734-24.734-24.734zM624.541 72.039c-4.947 0-9.894 1.237-14.841 4.947-11.13 8.657-13.604 23.498-4.947 34.628l44.522 60.599-44.522 60.599c-8.657 11.13-6.184 25.971 4.947 34.628s25.971 6.184 34.628-4.947l55.652-75.44c6.184-8.657 6.184-21.024 0-29.681l-55.652-75.44c-4.947-7.42-12.367-9.894-19.787-9.894zM793.971 310.725c-13.604 0-24.734 11.13-24.734 24.734 0 66.783-54.415 143.459-124.908 143.459h-74.203c-13.604 0-24.734 11.13-24.734 24.734s11.13 24.734 24.734 24.734h74.203c100.174 0 174.377-102.647 174.377-192.928 0-13.604-11.13-24.734-24.734-24.734zM624.541 408.425c-7.42 0-14.841 3.71-19.787 9.894l-55.652 75.44c-6.184 8.657-6.184 21.024 0 29.681l55.652 75.44c8.657 11.13 23.498 13.604 34.628 4.947s13.604-23.498 4.947-34.628l-44.522-60.599 44.522-60.599c8.657-11.13 6.184-25.971-4.947-34.628-3.71-2.473-9.894-4.947-14.841-4.947zM868.174 835.092h-524.367c-13.604 0-24.734 11.13-24.734 24.734s11.13 24.734 24.734 24.734h524.367c13.604 0 24.734-11.13 24.734-24.734s-11.13-24.734-24.734-24.734zM1187.246-64h-1162.512c-13.604 0-24.734 11.13-24.734 24.734v899.092c0 13.604 11.13 24.734 24.734 24.734h206.531c13.604 0 24.734-11.13 24.734-24.734s-11.13-24.734-24.734-24.734h-181.797v-850.86h1113.043v850.86h-181.797c-13.604 0-24.734 11.13-24.734 24.734s11.13 24.734 24.734 24.734h206.531c13.604 0 24.734-11.13 24.734-24.734v-900.329c0-12.367-11.13-23.498-24.734-23.498zM343.807 760.889h-112.541c-13.604 0-24.734 11.13-24.734 24.734v149.643c0 13.604 11.13 24.734 24.734 24.734h112.541c13.604 0 24.734-11.13 24.734-24.734v-149.643c0-13.604-11.13-24.734-24.734-24.734zM256 810.357h63.072v100.174h-63.072v-100.174zM980.715 760.889h-112.541c-13.604 0-24.734 11.13-24.734 24.734v149.643c0 13.604 11.13 24.734 24.734 24.734h112.541c13.604 0 24.734-11.13 24.734-24.734v-149.643c0-13.604-11.13-24.734-24.734-24.734zM892.908 810.357h63.072v100.174h-63.072v-100.174zM1187.246 685.449h-1162.512c-13.604 0-24.734 11.13-24.734 24.734s11.13 24.734 24.734 24.734h1162.512c13.604 0 24.734-11.13 24.734-24.734s-11.13-24.734-24.734-24.734z" />
<glyph unicode="&#xe91e;" glyph-name="calendar-rounded" d="M897.32-64h-770.639c-69.674 0-126.68 57.006-126.68 126.68v678.796c0 69.674 57.006 126.68 126.68 126.68h770.639c69.674 0 126.68-57.006 126.68-126.68v-678.796c0-69.674-57.006-126.68-126.68-126.68zM126.68 825.93c-46.449 0-84.454-38.004-84.454-84.454v-678.796c0-46.449 38.004-84.454 84.454-84.454h770.639c46.449 0 84.454 38.004 84.454 84.454v678.796c0 46.449-38.004 84.454-84.454 84.454h-770.639zM333.592 739.365c-11.612 0-21.113 9.501-21.113 21.113v178.408c0 11.612 9.501 21.113 21.113 21.113s21.113-9.501 21.113-21.113v-178.408c0-11.612-9.501-21.113-21.113-21.113zM690.408 739.365c-11.612 0-21.113 9.501-21.113 21.113v178.408c0 11.612 9.501 21.113 21.113 21.113s21.113-9.501 21.113-21.113v-178.408c0-11.612-9.501-21.113-21.113-21.113zM992.33 583.126h-960.66c-17.946 0-31.67 13.724-31.67 31.67v128.792c0 69.674 57.006 126.68 126.68 126.68h770.639c69.674 0 126.68-57.006 126.68-126.68v-128.792c0-16.891-13.724-31.67-31.67-31.67zM42.227 625.353h939.546v118.235c0 46.449-38.004 84.454-84.454 84.454h-770.639c-46.449 0-84.454-38.004-84.454-84.454v-118.235zM253.361 260.091c-58.062 0-105.567 47.505-105.567 105.567s47.505 105.567 105.567 105.567 105.567-47.505 105.567-105.567-47.505-105.567-105.567-105.567zM253.361 428.998c-34.837 0-63.34-28.503-63.34-63.34s28.503-63.34 63.34-63.34 63.34 28.503 63.34 63.34-28.503 63.34-63.34 63.34zM583.786 344.544h-116.124c-11.612 0-21.113 9.501-21.113 21.113s9.501 21.113 21.113 21.113h116.124c11.612 0 21.113-9.501 21.113-21.113s-9.501-21.113-21.113-21.113zM855.093 344.544h-116.124c-11.612 0-21.113 9.501-21.113 21.113s9.501 21.113 21.113 21.113h116.124c11.612 0 21.113-9.501 21.113-21.113s-9.501-21.113-21.113-21.113zM583.786 133.41h-116.124c-11.612 0-21.113 9.501-21.113 21.113s9.501 21.113 21.113 21.113h116.124c11.612 0 21.113-9.501 21.113-21.113s-9.501-21.113-21.113-21.113zM311.423 133.41h-116.124c-11.612 0-21.113 9.501-21.113 21.113s9.501 21.113 21.113 21.113h116.124c11.612 0 21.113-9.501 21.113-21.113s-9.501-21.113-21.113-21.113zM855.093 133.41h-116.124c-11.612 0-21.113 9.501-21.113 21.113s9.501 21.113 21.113 21.113h116.124c11.612 0 21.113-9.501 21.113-21.113s-9.501-21.113-21.113-21.113z" />
<glyph unicode="&#xe91f;" glyph-name="calendar-search" horiz-adv-x="1212" d="M550.338 247.652c-75.44 0-137.275 61.836-137.275 137.275s61.836 137.275 137.275 137.275c75.44 0 137.275-61.836 137.275-137.275-1.237-75.44-61.836-137.275-137.275-137.275zM550.338 472.734c-48.232 0-87.807-39.575-87.807-87.807s39.575-87.807 87.807-87.807c48.232 0 87.807 39.575 87.807 87.807s-39.575 87.807-87.807 87.807zM774.184 135.111c-6.184 0-12.367 2.473-17.314 7.42l-149.643 149.643c-9.894 9.894-9.894 24.734 0 34.628s24.734 9.894 34.628 0l149.643-149.643c9.894-9.894 9.894-24.734 0-34.628-3.71-4.947-9.894-7.42-17.314-7.42zM868.174 835.092h-524.367c-13.604 0-24.734 11.13-24.734 24.734s11.13 24.734 24.734 24.734h524.367c13.604 0 24.734-11.13 24.734-24.734s-11.13-24.734-24.734-24.734zM1187.246-64h-1162.512c-13.604 0-24.734 11.13-24.734 24.734v899.092c0 13.604 11.13 24.734 24.734 24.734h206.531c13.604 0 24.734-11.13 24.734-24.734s-11.13-24.734-24.734-24.734h-181.797v-850.86h1113.043v850.86h-181.797c-13.604 0-24.734 11.13-24.734 24.734s11.13 24.734 24.734 24.734h206.531c13.604 0 24.734-11.13 24.734-24.734v-900.329c0-12.367-11.13-23.498-24.734-23.498zM343.807 760.889h-112.541c-13.604 0-24.734 11.13-24.734 24.734v149.643c0 13.604 11.13 24.734 24.734 24.734h112.541c13.604 0 24.734-11.13 24.734-24.734v-149.643c0-13.604-11.13-24.734-24.734-24.734zM256 810.357h63.072v100.174h-63.072v-100.174zM980.715 760.889h-112.541c-13.604 0-24.734 11.13-24.734 24.734v149.643c0 13.604 11.13 24.734 24.734 24.734h112.541c13.604 0 24.734-11.13 24.734-24.734v-149.643c0-13.604-11.13-24.734-24.734-24.734zM892.908 810.357h63.072v100.174h-63.072v-100.174zM1187.246 685.449h-1162.512c-13.604 0-24.734 11.13-24.734 24.734s11.13 24.734 24.734 24.734h1162.512c13.604 0 24.734-11.13 24.734-24.734s-11.13-24.734-24.734-24.734z" />
<glyph unicode="&#xe920;" glyph-name="conversation" horiz-adv-x="1097" d="M95.126 117.298c-8.953 0-16.787 5.596-20.144 13.43-3.357 8.953-2.238 19.025 4.477 25.74 1.119 1.119 71.624 71.624 82.815 171.226-106.317 67.148-162.273 161.154-162.273 274.186 0 196.966 196.966 358.12 439.816 358.12s439.816-161.154 439.816-358.12c0-196.966-196.966-358.12-439.816-358.12h-81.696c-96.245-113.032-255.161-126.461-261.875-126.461 0 0-1.119 0-1.119 0zM439.816 915.235c-218.23 0-395.051-141.010-395.051-313.355 0-100.721 52.599-184.656 152.201-243.969 6.715-4.477 11.191-12.31 11.191-20.144-4.477-70.505-33.574-127.58-58.195-165.631 52.599 13.43 128.699 43.646 180.179 107.436 4.477 5.596 11.191 8.953 17.906 8.953h92.887c217.11 0 395.051 141.010 395.051 313.355s-179.060 313.355-396.17 313.355zM1001.617-64c0 0-1.119 0-1.119 0-6.715 0-164.511 13.43-260.756 126.461h-81.696c-109.674 0-199.204 25.74-267.471 77.22-10.072 7.834-12.31 21.263-4.477 31.336s21.263 12.31 31.336 4.477c60.433-44.765 141.010-68.267 240.612-68.267h91.768c6.715 0 13.43-3.357 17.906-8.953 51.48-64.909 127.58-95.126 180.179-108.555-25.74 38.050-53.718 95.126-58.195 165.631 0 8.953 3.357 16.787 11.191 20.144 98.483 60.433 151.082 144.367 151.082 245.089 0 47.003-31.336 121.985-99.602 173.464-10.072 7.834-12.31 21.263-4.477 31.336s21.263 12.31 31.336 4.477c80.577-61.552 117.508-149.963 117.508-209.277 0-113.032-55.956-207.038-162.273-274.186 12.31-100.721 81.696-171.226 82.815-171.226 6.715-6.715 8.953-16.787 4.477-25.74-3.357-8.953-11.191-13.43-20.144-13.43z" />
<glyph unicode="&#xe921;" glyph-name="conversation-with-dots" horiz-adv-x="1337" d="M1184.418-64c-2.674 0-4.010 0-6.684 1.337-48.125 13.368-92.24 38.768-126.997 74.862-2.674-1.337-6.684-1.337-9.358-2.674-17.379-5.347-37.431-10.695-58.82-10.695-89.567 0-155.070 20.052-219.238 68.178-12.031 9.358-14.705 25.399-5.347 37.431s25.399 14.705 37.431 5.347c54.809-40.104 109.619-57.483 187.154-57.483 14.705 0 29.41 4.010 45.452 8.021 9.358 2.674 18.715 5.347 28.073 6.684s18.715-1.337 25.399-9.358c21.389-25.399 48.125-44.115 78.872-57.483v104.272c0 9.358 4.010 17.379 12.031 22.726 40.104 28.073 110.956 88.23 110.956 164.428 0 86.893-50.799 140.366-168.439 177.796-14.705 4.010-21.389 20.052-17.379 33.42 4.010 14.705 20.052 21.389 33.42 17.379 88.23-28.073 205.869-82.883 205.869-228.595 0-72.188-44.115-143.039-125.661-200.522v-126.997c0-8.021-4.010-16.042-10.695-21.389-4.010-4.010-9.358-6.684-16.042-6.684zM213.89-13.201c-5.347 0-9.358 1.337-14.705 4.010-8.021 5.347-12.031 13.368-12.031 22.726v201.859c-122.987 88.23-187.154 195.175-187.154 311.478 0 243.3 233.943 433.128 533.389 433.128 296.773 0 521.358-185.817 521.358-433.128 0-240.627-203.196-402.381-506.653-402.381-41.441 1.337-81.546 5.347-120.313 13.368-57.483-61.493-125.661-110.956-201.859-148.386-4.010-2.674-8.021-2.674-12.031-2.674zM533.389 906.527c-268.7 0-479.916-167.102-479.916-379.655 0-126.997 94.914-219.238 175.123-275.384 6.684-5.347 12.031-13.368 12.031-21.389v-171.112c58.82 33.42 112.292 76.198 157.744 126.997 6.684 6.684 16.042 10.695 25.399 8.021 41.441-9.358 82.883-13.368 125.661-14.705 270.037 0 451.843 140.366 451.843 348.909 0 215.227-201.859 378.319-467.885 378.319zM574.83 526.872c0-25.841-20.948-46.789-46.789-46.789s-46.789 20.948-46.789 46.789c0 25.841 20.948 46.789 46.789 46.789s46.789-20.948 46.789-46.789zM792.731 526.872c0-25.841-20.948-46.789-46.789-46.789s-46.789 20.948-46.789 46.789c0 25.841 20.948 46.789 46.789 46.789s46.789-20.948 46.789-46.789zM355.593 522.862c0-25.841-20.948-46.789-46.789-46.789s-46.789 20.948-46.789 46.789c0 25.841 20.948 46.789 46.789 46.789s46.789-20.948 46.789-46.789z" />
<glyph unicode="&#xe922;" glyph-name="mail" horiz-adv-x="1387" d="M1237.095-64h-1086.927c-82.95 0-150.168 65.788-150.168 148.737v725.095c0 82.95 67.218 150.168 150.168 150.168h1088.358c81.52 0 148.737-67.218 148.737-150.168v-725.095c0-82.95-67.218-148.737-150.168-148.737zM150.168 902.793c-51.486 0-92.961-41.475-92.961-92.961v-725.095c0-51.486 41.475-91.531 92.961-91.531h1088.358c51.486 0 92.961 41.475 92.961 91.531v725.095c-1.43 51.486-42.905 92.961-94.391 92.961h-1086.927zM693.631 359.33c-5.721 0-12.872 1.43-18.592 5.721l-620.693 501.989c-12.872 10.011-14.302 28.603-4.291 40.045 10.011 12.872 28.603 14.302 40.045 4.291l602.101-487.687 603.531 487.687c12.872 10.011 30.034 8.581 40.045-4.291s8.581-30.034-4.291-40.045l-619.263-501.989c-5.721-4.291-12.872-5.721-18.592-5.721z" />
<glyph unicode="&#xe923;" glyph-name="mail-close" d="M622.759 470.988c-5.224 0-10.449 2.090-14.629 6.269l-221.518 221.518c-8.359 8.359-8.359 20.898 0 29.257s20.898 8.359 29.257 0l221.518-221.518c8.359-8.359 8.359-20.898 0-29.257-4.18-4.18-9.404-6.269-14.629-6.269zM401.241 470.988c-5.224 0-10.449 2.090-14.629 6.269-8.359 8.359-8.359 20.898 0 29.257l221.518 221.518c8.359 8.359 20.898 8.359 29.257 0s8.359-20.898 0-29.257l-221.518-221.518c-4.18-4.18-9.404-6.269-14.629-6.269zM512 210.808c-4.18 0-7.314 1.045-11.494 3.135l-491.102 307.2c-9.404 6.269-12.539 18.808-6.269 29.257s18.808 12.539 29.257 6.269l479.608-300.931 479.608 300.931c9.404 6.269 22.988 3.135 29.257-6.269s3.135-22.988-6.269-29.257l-491.102-308.245c-4.18-1.045-7.314-2.090-11.494-2.090zM1003.102-64h-982.204c-11.494 0-20.898 9.404-20.898 20.898v586.188c0 8.359 5.224 15.673 12.539 18.808l164.049 68.963c10.449 4.18 22.988-1.045 27.167-11.494s-1.045-22.988-11.494-27.167l-150.465-62.694v-551.706h940.408v551.706l-150.465 63.739c-10.449 4.18-15.673 16.718-11.494 27.167s16.718 15.673 27.167 11.494l164.049-68.963c7.314-3.135 12.539-10.449 12.539-18.808v-587.233c0-11.494-9.404-20.898-20.898-20.898zM844.278 427.102c-11.494 0-20.898 9.404-20.898 20.898v470.204h-622.759v-470.204c0-11.494-9.404-20.898-20.898-20.898s-20.898 9.404-20.898 20.898v491.102c0 11.494 9.404 20.898 20.898 20.898h665.6c11.494 0 20.898-9.404 20.898-20.898v-491.102c-1.045-11.494-10.449-20.898-21.943-20.898z" />
<glyph unicode="&#xe924;" glyph-name="mail-cloud" d="M622.759 490.841h-221.518c-43.886 0-68.963 25.078-68.963 68.963 0 25.078 19.853 57.469 52.245 65.829 16.718 49.11 67.918 97.176 127.478 97.176 66.873 0 121.208-41.796 130.612-98.22 30.302-9.404 49.11-41.796 49.11-65.829 0-41.796-26.122-67.918-68.963-67.918zM512 681.012c-42.841 0-83.592-40.751-89.861-78.367-2.090-9.404-10.449-16.718-20.898-16.718-18.808 0-27.167-20.898-27.167-26.122 0-19.853 6.269-27.167 27.167-27.167h221.518c18.808 0 26.122 7.314 26.122 27.167 0 4.18-7.314 26.122-26.122 26.122-11.494 0-20.898 9.404-20.898 20.898 0 48.065-45.976 74.188-89.861 74.188zM512 208.718c-4.18 0-7.314 1.045-11.494 3.135l-491.102 308.245c-9.404 6.269-12.539 18.808-6.269 29.257s18.808 12.539 29.257 6.269l479.608-300.931 479.608 300.931c9.404 6.269 22.988 3.135 29.257-6.269s3.135-22.988-6.269-29.257l-491.102-308.245c-4.18-2.090-7.314-3.135-11.494-3.135zM1003.102-64h-982.204c-11.494 0-20.898 9.404-20.898 20.898v586.188c0 8.359 5.224 15.673 12.539 18.808l164.049 68.963c10.449 4.18 22.988-1.045 27.167-11.494s-1.045-22.988-11.494-27.167l-150.465-62.694v-551.706h940.408v551.706l-150.465 63.739c-10.449 4.18-15.673 16.718-11.494 27.167s16.718 15.673 27.167 11.494l164.049-68.963c7.314-3.135 12.539-10.449 12.539-18.808v-587.233c0-11.494-9.404-20.898-20.898-20.898zM844.278 427.102c-11.494 0-20.898 9.404-20.898 20.898v470.204h-622.759v-470.204c0-11.494-9.404-20.898-20.898-20.898s-20.898 9.404-20.898 20.898v491.102c0 11.494 9.404 20.898 20.898 20.898h665.6c11.494 0 20.898-9.404 20.898-20.898v-491.102c-1.045-11.494-10.449-20.898-21.943-20.898z" />
<glyph unicode="&#xe925;" glyph-name="mail-copy" d="M622.759 458.449h-221.518c-11.494 0-20.898 9.404-20.898 20.898v205.845c0 5.224 2.090 10.449 6.269 14.629l110.759 110.759c4.18 4.18 9.404 6.269 14.629 6.269h110.759c11.494 0 20.898-9.404 20.898-20.898v-316.604c0-11.494-9.404-20.898-20.898-20.898zM422.139 500.245h179.722v275.853h-81.502l-98.22-98.22v-177.633zM512 664.294h-110.759c-11.494 0-20.898 9.404-20.898 20.898s9.404 20.898 20.898 20.898h89.861v89.861c0 11.494 9.404 20.898 20.898 20.898s20.898-9.404 20.898-20.898v-110.759c0-11.494-9.404-20.898-20.898-20.898zM512 213.943c-4.18 0-7.314 1.045-11.494 3.135l-491.102 308.245c-9.404 6.269-12.539 18.808-6.269 29.257 6.269 9.404 18.808 12.539 29.257 6.269l479.608-300.931 479.608 300.931c9.404 6.269 22.988 3.135 29.257-6.269s3.135-22.988-6.269-29.257l-491.102-308.245c-4.18-2.090-7.314-3.135-11.494-3.135zM1003.102-64h-982.204c-11.494 0-20.898 9.404-20.898 20.898v586.188c0 8.359 5.224 15.673 12.539 18.808l164.049 68.963c10.449 4.18 22.988-1.045 27.167-11.494s-1.045-22.988-11.494-27.167l-150.465-62.694v-551.706h940.408v551.706l-150.465 63.739c-10.449 4.18-15.673 16.718-11.494 27.167s16.718 15.673 27.167 11.494l164.049-68.963c7.314-3.135 12.539-10.449 12.539-18.808v-587.233c0-11.494-9.404-20.898-20.898-20.898zM844.278 427.102c-11.494 0-20.898 9.404-20.898 20.898v470.204h-622.759v-470.204c0-11.494-9.404-20.898-20.898-20.898s-20.898 9.404-20.898 20.898v491.102c0 11.494 9.404 20.898 20.898 20.898h665.6c11.494 0 20.898-9.404 20.898-20.898v-491.102c-1.045-11.494-10.449-20.898-21.943-20.898z" />
<glyph unicode="&#xe926;" glyph-name="mail-disable-delete" d="M512 442.776c-89.861 0-163.004 73.143-163.004 163.004s73.143 163.004 163.004 163.004 163.004-73.143 163.004-163.004c0-89.861-73.143-163.004-163.004-163.004zM512 728.033c-66.873 0-121.208-54.335-121.208-121.208s54.335-121.208 121.208-121.208c66.873 0 121.208 54.335 121.208 121.208s-54.335 121.208-121.208 121.208zM609.176 487.706c-5.224 0-10.449 2.090-14.629 6.269l-195.396 195.396c-8.359 8.359-8.359 20.898 0 29.257s20.898 8.359 29.257 0l195.396-195.396c8.359-8.359 8.359-20.898 0-29.257-3.135-4.18-8.359-6.269-14.629-6.269zM512 213.943c-4.18 0-7.314 1.045-11.494 3.135l-491.102 308.245c-9.404 6.269-12.539 18.808-6.269 29.257 6.269 9.404 18.808 12.539 29.257 6.269l479.608-300.931 479.608 300.931c9.404 6.269 22.988 3.135 29.257-6.269s3.135-22.988-6.269-29.257l-491.102-308.245c-4.18-2.090-7.314-3.135-11.494-3.135zM1003.102-64h-982.204c-11.494 0-20.898 9.404-20.898 20.898v586.188c0 8.359 5.224 15.673 12.539 18.808l164.049 68.963c10.449 4.18 22.988-1.045 27.167-11.494s-1.045-22.988-11.494-27.167l-150.465-62.694v-551.706h940.408v551.706l-150.465 63.739c-10.449 4.18-15.673 16.718-11.494 27.167s16.718 15.673 27.167 11.494l164.049-68.963c7.314-3.135 12.539-10.449 12.539-18.808v-587.233c0-11.494-9.404-20.898-20.898-20.898zM844.278 427.102c-11.494 0-20.898 9.404-20.898 20.898v470.204h-622.759v-470.204c0-11.494-9.404-20.898-20.898-20.898s-20.898 9.404-20.898 20.898v491.102c0 11.494 9.404 20.898 20.898 20.898h665.6c11.494 0 20.898-9.404 20.898-20.898v-491.102c-1.045-11.494-10.449-20.898-21.943-20.898z" />
<glyph unicode="&#xe927;" glyph-name="mail-download" d="M512 442.776c-5.224 0-10.449 2.090-14.629 6.269l-126.433 126.433c-8.359 8.359-8.359 20.898 0 29.257s20.898 8.359 29.257 0l111.804-111.804 111.804 111.804c8.359 8.359 20.898 8.359 29.257 0s8.359-20.898 0-29.257l-126.433-126.433c-4.18-4.18-9.404-6.269-14.629-6.269zM512 442.776c-11.494 0-20.898 9.404-20.898 20.898v316.604c0 11.494 9.404 20.898 20.898 20.898s20.898-9.404 20.898-20.898v-316.604c0-11.494-9.404-20.898-20.898-20.898zM512 213.943c-4.18 0-7.314 1.045-11.494 3.135l-491.102 308.245c-9.404 6.269-12.539 18.808-6.269 29.257 6.269 9.404 18.808 12.539 29.257 6.269l479.608-300.931 479.608 300.931c9.404 6.269 22.988 3.135 29.257-6.269s3.135-22.988-6.269-29.257l-491.102-308.245c-4.18-2.090-7.314-3.135-11.494-3.135zM1003.102-64h-982.204c-11.494 0-20.898 9.404-20.898 20.898v586.188c0 8.359 5.224 15.673 12.539 18.808l164.049 68.963c10.449 4.18 22.988-1.045 27.167-11.494s-1.045-22.988-11.494-27.167l-150.465-62.694v-551.706h940.408v551.706l-150.465 63.739c-10.449 4.18-15.673 16.718-11.494 27.167s16.718 15.673 27.167 11.494l164.049-68.963c7.314-3.135 12.539-10.449 12.539-18.808v-587.233c0-11.494-9.404-20.898-20.898-20.898zM844.278 427.102c-11.494 0-20.898 9.404-20.898 20.898v470.204h-622.759v-470.204c0-11.494-9.404-20.898-20.898-20.898s-20.898 9.404-20.898 20.898v491.102c0 11.494 9.404 20.898 20.898 20.898h665.6c11.494 0 20.898-9.404 20.898-20.898v-491.102c-1.045-11.494-10.449-20.898-21.943-20.898z" />
<glyph unicode="&#xe928;" glyph-name="mail-favourite" d="M512 213.943c-4.18 0-7.314 1.045-11.494 3.135l-491.102 308.245c-9.404 6.269-12.539 18.808-6.269 28.212s18.808 12.539 29.257 6.269l479.608-299.886 479.608 300.931c9.404 6.269 22.988 3.135 29.257-6.269s3.135-22.988-6.269-29.257l-491.102-308.245c-4.18-2.090-7.314-3.135-11.494-3.135zM1003.102-64h-982.204c-11.494 0-20.898 9.404-20.898 20.898v586.188c0 8.359 5.224 15.673 12.539 18.808l164.049 68.963c10.449 4.18 22.988-1.045 27.167-11.494s-1.045-22.988-11.494-27.167l-150.465-62.694v-551.706h940.408v551.706l-150.465 63.739c-10.449 4.18-15.673 16.718-11.494 27.167s16.718 15.673 27.167 11.494l164.049-68.963c7.314-3.135 12.539-10.449 12.539-18.808v-587.233c0-11.494-9.404-20.898-20.898-20.898zM844.278 427.102c-11.494 0-20.898 9.404-20.898 20.898v470.204h-622.759v-470.204c0-11.494-9.404-20.898-20.898-20.898s-20.898 9.404-20.898 20.898v491.102c0 11.494 9.404 20.898 20.898 20.898h665.6c11.494 0 20.898-9.404 20.898-20.898v-491.102c-1.045-11.494-10.449-20.898-21.943-20.898zM414.824 442.776c-4.18 0-8.359 1.045-12.539 4.18-7.314 5.224-10.449 14.629-7.314 22.988l29.257 96.131-82.547 54.335c-7.314 5.224-11.494 14.629-8.359 22.988s10.449 14.629 19.853 14.629h99.265l39.706 113.894c3.135 8.359 10.449 13.584 19.853 13.584s16.718-5.224 19.853-13.584l42.841-112.849h96.131c9.404 0 17.763-6.269 19.853-14.629 3.135-8.359-1.045-18.808-8.359-22.988l-82.547-55.38 27.167-96.131c2.090-8.359-1.045-17.763-8.359-22.988s-16.718-5.224-24.033 0l-82.547 55.38-85.682-55.38c-3.135-3.135-7.314-4.18-11.494-4.18zM423.184 617.273l37.616-25.078c7.314-5.224 11.494-14.629 8.359-22.988l-16.718-55.38 49.11 32.392c7.314 4.18 15.673 4.18 22.988 0l47.020-31.347-15.673 56.424c-2.090 8.359 1.045 17.763 8.359 22.988l37.616 25.078h-41.796c-8.359 0-16.718 5.224-19.853 13.584l-27.167 73.143-25.078-72.098c-3.135-8.359-10.449-13.584-19.853-13.584h-44.931z" />
<glyph unicode="&#xe929;" glyph-name="mail-flag" d="M512 213.943c-4.18 0-7.314 1.045-11.494 3.135l-491.102 308.245c-9.404 6.269-12.539 18.808-6.269 29.257 6.269 9.404 18.808 12.539 29.257 6.269l479.608-300.931 479.608 300.931c9.404 6.269 22.988 3.135 29.257-6.269s3.135-22.988-6.269-29.257l-491.102-308.245c-4.18-2.090-7.314-3.135-11.494-3.135zM1003.102-64h-982.204c-11.494 0-20.898 9.404-20.898 20.898v586.188c0 8.359 5.224 15.673 12.539 18.808l164.049 68.963c10.449 4.18 22.988-1.045 27.167-11.494s-1.045-22.988-11.494-27.167l-150.465-62.694v-551.706h940.408v551.706l-150.465 63.739c-10.449 4.18-15.673 16.718-11.494 27.167s16.718 15.673 27.167 11.494l164.049-68.963c7.314-3.135 12.539-10.449 12.539-18.808v-587.233c0-11.494-9.404-20.898-20.898-20.898zM844.278 427.102c-11.494 0-20.898 9.404-20.898 20.898v470.204h-622.759v-470.204c0-11.494-9.404-20.898-20.898-20.898s-20.898 9.404-20.898 20.898v491.102c0 11.494 9.404 20.898 20.898 20.898h665.6c11.494 0 20.898-9.404 20.898-20.898v-491.102c-1.045-11.494-10.449-20.898-21.943-20.898zM432.588 427.102c-11.494 0-20.898 9.404-20.898 20.898v364.669c0 11.494 9.404 20.898 20.898 20.898s20.898-9.404 20.898-20.898v-364.669c0-11.494-9.404-20.898-20.898-20.898zM670.824 617.273h-238.237c-11.494 0-20.898 9.404-20.898 20.898s9.404 20.898 20.898 20.898h199.576l-19.853 31.347c-4.18 7.314-4.18 15.673 0 21.943l19.853 31.347h-199.576c-11.494 0-20.898 9.404-20.898 20.898s9.404 20.898 20.898 20.898h237.192c7.314 0 14.629-4.18 18.808-10.449s3.135-14.629-1.045-20.898l-32.392-52.245 32.392-52.245c4.18-6.269 4.18-14.629 1.045-20.898-3.135-7.314-10.449-11.494-17.763-11.494z" />
<glyph unicode="&#xe92a;" glyph-name="mail-forward" d="M543.347 458.449c-5.224 0-10.449 2.090-14.629 6.269-8.359 8.359-8.359 20.898 0 29.257l111.804 111.804-111.804 112.849c-8.359 8.359-8.359 20.898 0 29.257s20.898 8.359 29.257 0l126.433-126.433c8.359-8.359 8.359-20.898 0-29.257l-126.433-127.478c-3.135-4.18-9.404-6.269-14.629-6.269zM670.824 585.927h-317.649c-11.494 0-20.898 9.404-20.898 20.898s9.404 20.898 20.898 20.898h316.604c11.494 0 20.898-9.404 20.898-20.898s-8.359-20.898-19.853-20.898zM512 213.943c-4.18 0-7.314 1.045-11.494 3.135l-491.102 308.245c-9.404 6.269-12.539 18.808-6.269 29.257 6.269 9.404 18.808 12.539 29.257 6.269l479.608-300.931 479.608 300.931c9.404 6.269 22.988 3.135 29.257-6.269s3.135-22.988-6.269-29.257l-491.102-308.245c-4.18-2.090-7.314-3.135-11.494-3.135zM1003.102-64h-982.204c-11.494 0-20.898 9.404-20.898 20.898v586.188c0 8.359 5.224 15.673 12.539 18.808l164.049 68.963c10.449 4.18 22.988-1.045 27.167-11.494s-1.045-22.988-11.494-27.167l-150.465-62.694v-551.706h940.408v551.706l-150.465 63.739c-10.449 4.18-15.673 16.718-11.494 27.167s16.718 15.673 27.167 11.494l164.049-68.963c7.314-3.135 12.539-10.449 12.539-18.808v-587.233c0-11.494-9.404-20.898-20.898-20.898zM844.278 427.102c-11.494 0-20.898 9.404-20.898 20.898v470.204h-622.759v-470.204c0-11.494-9.404-20.898-20.898-20.898s-20.898 9.404-20.898 20.898v491.102c0 11.494 9.404 20.898 20.898 20.898h665.6c11.494 0 20.898-9.404 20.898-20.898v-491.102c-1.045-11.494-10.449-20.898-21.943-20.898z" />
<glyph unicode="&#xe92b;" glyph-name="mail-love" d="M512 219.167c-4.18 0-7.314 1.045-11.494 3.135l-491.102 308.245c-9.404 6.269-12.539 18.808-6.269 29.257 6.269 9.404 18.808 12.539 29.257 6.269l479.608-301.976 479.608 300.931c9.404 6.269 22.988 3.135 29.257-6.269s3.135-22.988-6.269-29.257l-491.102-308.245c-4.18-1.045-7.314-2.090-11.494-2.090zM1003.102-64h-982.204c-11.494 0-20.898 9.404-20.898 20.898v586.188c0 8.359 5.224 15.673 12.539 18.808l164.049 68.963c10.449 4.18 22.988-1.045 27.167-11.494s-1.045-22.988-11.494-27.167l-150.465-62.694v-551.706h940.408v551.706l-150.465 63.739c-10.449 4.18-15.673 16.718-11.494 27.167s16.718 15.673 27.167 11.494l164.049-68.963c7.314-3.135 12.539-10.449 12.539-18.808v-587.233c0-11.494-9.404-20.898-20.898-20.898zM844.278 427.102c-11.494 0-20.898 9.404-20.898 20.898v470.204h-622.759v-470.204c0-11.494-9.404-20.898-20.898-20.898s-20.898 9.404-20.898 20.898v491.102c0 11.494 9.404 20.898 20.898 20.898h665.6c11.494 0 20.898-9.404 20.898-20.898v-491.102c-1.045-11.494-10.449-20.898-21.943-20.898zM512 448c-3.135 0-6.269 1.045-9.404 2.090-7.314 3.135-169.273 90.906-169.273 207.935 0 2.090 0 4.18 0 5.224 1.045 26.122 11.494 50.155 30.302 67.918s43.886 27.167 70.008 26.122c0 0 0 0 0 0 31.347 0 60.604-15.673 78.367-38.661 18.808 24.033 47.020 38.661 79.412 38.661 1.045 0 3.135 0 5.224 0 54.335-2.090 96.131-47.020 95.086-100.31 0-117.029-163.004-203.755-169.273-207.935-4.18 0-7.314-1.045-10.449-1.045zM430.498 716.539c-14.629 0-28.212-5.224-38.661-15.673s-16.718-24.033-17.763-38.661c0-1.045 0-2.090 0-3.135 0 0 0 0 0-1.045 0-78.367 104.49-146.286 137.927-165.094 32.392 19.853 137.927 87.771 137.927 165.094 1.045 31.347-22.988 57.469-54.335 58.514-1.045 0-2.090 0-3.135 0-32.392 0-58.514-26.122-58.514-58.514 0-11.494-9.404-20.898-20.898-20.898s-20.898 9.404-20.898 20.898c0 32.392-26.122 58.514-58.514 58.514-1.045 0-2.090 0-3.135 0z" />
<glyph unicode="&#xe92c;" glyph-name="mail-open" d="M86.727-64c-48.065 0-86.727 38.661-86.727 86.727v491.102c0 11.494 9.404 20.898 20.898 20.898s20.898-9.404 20.898-20.898v-491.102c0-25.078 19.853-44.931 44.931-44.931h851.592c24.033 0 44.931 19.853 44.931 44.931v491.102c0 11.494 9.404 20.898 20.898 20.898s20.898-9.404 20.898-20.898v-491.102c0-47.020-38.661-85.682-86.727-86.727h-851.592zM970.71-33.698c-5.224 0-9.404 2.090-13.584 5.224l-433.633 384.522c-6.269 5.224-15.673 5.224-22.988-1.045l-432.588-383.478c-8.359-7.314-21.943-7.314-29.257 2.090-7.314 8.359-7.314 21.943 2.090 29.257l433.633 384.522c22.988 18.808 54.335 18.808 76.278 1.045l434.678-384.522c8.359-7.314 9.404-20.898 2.090-29.257-5.224-6.269-11.494-8.359-16.718-8.359zM1003.102 492.931c-5.224 0-9.404 2.090-13.584 5.224l-477.518 413.78-477.518-413.78c-8.359-8.359-21.943-7.314-29.257 2.090-7.314 8.359-6.269 21.943 2.090 29.257l491.102 425.273c8.359 7.314 19.853 7.314 27.167 0l491.102-425.273c8.359-7.314 9.404-20.898 2.090-29.257-4.18-5.224-9.404-7.314-15.673-7.314zM335.412 218.122c-5.224 0-9.404 2.090-13.584 5.224l-314.514 274.808c-8.359 7.314-9.404 20.898-2.090 29.257s20.898 9.404 29.257 2.090l314.514-273.763c8.359-7.314 9.404-20.898 2.090-29.257-4.18-5.224-9.404-8.359-15.673-8.359zM688.588 218.122c-6.269 0-11.494 2.090-15.673 7.314-7.314 8.359-6.269 21.943 2.090 29.257l314.514 273.763c8.359 7.314 21.943 6.269 29.257-2.090s6.269-21.943-2.090-29.257l-314.514-273.763c-4.18-3.135-8.359-5.224-13.584-5.224z" />
<glyph unicode="&#xe92d;" glyph-name="mail-picture" d="M670.824 474.122h-317.649c-11.494 0-20.898 9.404-20.898 20.898v222.563c0 11.494 9.404 20.898 20.898 20.898h316.604c11.494 0 20.898-9.404 20.898-20.898v-221.518c1.045-12.539-8.359-21.943-19.853-21.943zM374.073 515.918h274.808v180.767h-274.808v-180.767zM654.106 490.841c-5.224 0-9.404 2.090-13.584 5.224l-80.457 66.873-17.763-17.763c-4.18-4.18-10.449-6.269-15.673-6.269-6.269 0-11.494 3.135-15.673 7.314l-49.11 60.604-94.041-94.041c-8.359-8.359-20.898-8.359-29.257 0s-8.359 20.898 0 29.257l110.759 110.759c4.18 4.18 9.404 6.269 15.673 6.269s11.494-3.135 15.673-7.314l49.11-60.604 15.673 15.673c7.314 7.314 19.853 8.359 28.212 1.045l95.086-79.412c8.359-7.314 10.449-20.898 3.135-29.257-5.224-6.269-11.494-8.359-17.763-8.359zM622.759 601.6c-37.616 0-68.963 30.302-68.963 67.918s30.302 67.918 68.963 67.918c37.616 0 67.918-30.302 67.918-67.918s-30.302-67.918-67.918-67.918zM622.759 696.686c-14.629 0-27.167-11.494-27.167-26.122s11.494-26.122 27.167-26.122 26.122 11.494 26.122 26.122-11.494 26.122-26.122 26.122zM512 213.943c-4.18 0-7.314 1.045-11.494 3.135l-491.102 308.245c-9.404 6.269-12.539 18.808-6.269 29.257 6.269 9.404 18.808 12.539 29.257 6.269l479.608-300.931 479.608 300.931c9.404 6.269 22.988 3.135 29.257-6.269s3.135-22.988-6.269-29.257l-491.102-308.245c-4.18-2.090-7.314-3.135-11.494-3.135zM1003.102-64h-982.204c-11.494 0-20.898 9.404-20.898 20.898v586.188c0 8.359 5.224 15.673 12.539 18.808l164.049 68.963c10.449 4.18 22.988-1.045 27.167-11.494s-1.045-22.988-11.494-27.167l-150.465-62.694v-551.706h940.408v551.706l-150.465 63.739c-10.449 4.18-15.673 16.718-11.494 27.167s16.718 15.673 27.167 11.494l164.049-68.963c7.314-3.135 12.539-10.449 12.539-18.808v-587.233c0-11.494-9.404-20.898-20.898-20.898zM844.278 427.102c-11.494 0-20.898 9.404-20.898 20.898v470.204h-622.759v-470.204c0-11.494-9.404-20.898-20.898-20.898s-20.898 9.404-20.898 20.898v491.102c0 11.494 9.404 20.898 20.898 20.898h665.6c11.494 0 20.898-9.404 20.898-20.898v-491.102c-1.045-11.494-10.449-20.898-21.943-20.898z" />
<glyph unicode="&#xe92e;" glyph-name="mail-refresh" d="M575.739 442.776h-63.739c-84.637 0-147.331 86.727-147.331 163.004 0 11.494 9.404 20.898 20.898 20.898s20.898-9.404 20.898-20.898c0-56.424 45.976-121.208 105.535-121.208h63.739c11.494 0 20.898-9.404 20.898-20.898s-9.404-20.898-20.898-20.898zM527.673 385.306c-4.18 0-8.359 1.045-12.539 4.18-9.404 7.314-11.494 19.853-4.18 29.257l37.616 51.2-37.616 51.2c-7.314 9.404-5.224 21.943 4.18 29.257s21.943 5.224 29.257-4.18l47.020-63.739c5.224-7.314 5.224-17.763 0-25.078l-47.020-63.739c-4.18-5.224-10.449-8.359-16.718-8.359zM670.824 585.927c-11.494 0-20.898 9.404-20.898 20.898 0 56.424-45.976 121.208-105.535 121.208h-62.694c-11.494 0-20.898 9.404-20.898 20.898s9.404 20.898 20.898 20.898h62.694c84.637 0 147.331-86.727 147.331-163.004 0-11.494-9.404-20.898-20.898-20.898zM527.673 670.563c-6.269 0-12.539 3.135-16.718 8.359l-47.020 63.739c-5.224 7.314-5.224 17.763 0 25.078l47.020 63.739c7.314 9.404 19.853 11.494 29.257 4.18s11.494-19.853 4.18-29.257l-37.616-51.2 37.616-51.2c7.314-9.404 5.224-21.943-4.18-29.257-3.135-3.135-8.359-4.18-12.539-4.18zM512 220.212c-4.18 0-7.314 1.045-11.494 3.135l-491.102 308.245c-9.404 6.269-12.539 18.808-6.269 29.257 6.269 9.404 18.808 12.539 29.257 6.269l479.608-301.976 479.608 300.931c9.404 6.269 22.988 3.135 29.257-6.269s3.135-22.988-6.269-29.257l-491.102-308.245c-4.18-1.045-7.314-2.090-11.494-2.090zM1003.102-64h-982.204c-11.494 0-20.898 9.404-20.898 20.898v586.188c0 8.359 5.224 15.673 12.539 18.808l164.049 68.963c10.449 4.18 22.988-1.045 27.167-11.494s-1.045-22.988-11.494-27.167l-150.465-62.694v-551.706h940.408v551.706l-150.465 63.739c-10.449 4.18-15.673 16.718-11.494 27.167s16.718 15.673 27.167 11.494l164.049-68.963c7.314-3.135 12.539-10.449 12.539-18.808v-587.233c0-11.494-9.404-20.898-20.898-20.898zM844.278 427.102c-11.494 0-20.898 9.404-20.898 20.898v470.204h-622.759v-470.204c0-11.494-9.404-20.898-20.898-20.898s-20.898 9.404-20.898 20.898v491.102c0 11.494 9.404 20.898 20.898 20.898h665.6c11.494 0 20.898-9.404 20.898-20.898v-491.102c-1.045-11.494-10.449-20.898-21.943-20.898z" />
<glyph unicode="&#xe92f;" glyph-name="mail-search" d="M464.98 537.861c-63.739 0-115.984 52.245-115.984 115.984s52.245 115.984 115.984 115.984c63.739 0 115.984-52.245 115.984-115.984s-52.245-115.984-115.984-115.984zM464.98 728.033c-40.751 0-74.188-33.437-74.188-74.188s33.437-74.188 74.188-74.188c40.751 0 74.188 33.437 74.188 74.188s-33.437 74.188-74.188 74.188zM654.106 442.776c-5.224 0-10.449 2.090-14.629 6.269l-126.433 126.433c-8.359 8.359-8.359 20.898 0 29.257s20.898 8.359 29.257 0l126.433-126.433c8.359-8.359 8.359-20.898 0-29.257-3.135-4.18-8.359-6.269-14.629-6.269zM512 213.943c-4.18 0-7.314 1.045-11.494 3.135l-491.102 308.245c-9.404 6.269-12.539 18.808-6.269 29.257 6.269 9.404 18.808 12.539 29.257 6.269l479.608-300.931 479.608 300.931c9.404 6.269 22.988 3.135 29.257-6.269s3.135-22.988-6.269-29.257l-491.102-308.245c-4.18-2.090-7.314-3.135-11.494-3.135zM1003.102-64h-982.204c-11.494 0-20.898 9.404-20.898 20.898v586.188c0 8.359 5.224 15.673 12.539 18.808l164.049 68.963c10.449 4.18 22.988-1.045 27.167-11.494s-1.045-22.988-11.494-27.167l-150.465-62.694v-551.706h940.408v551.706l-150.465 63.739c-10.449 4.18-15.673 16.718-11.494 27.167s16.718 15.673 27.167 11.494l164.049-68.963c7.314-3.135 12.539-10.449 12.539-18.808v-587.233c0-11.494-9.404-20.898-20.898-20.898zM844.278 427.102c-11.494 0-20.898 9.404-20.898 20.898v470.204h-622.759v-470.204c0-11.494-9.404-20.898-20.898-20.898s-20.898 9.404-20.898 20.898v491.102c0 11.494 9.404 20.898 20.898 20.898h665.6c11.494 0 20.898-9.404 20.898-20.898v-491.102c-1.045-11.494-10.449-20.898-21.943-20.898z" />
<glyph unicode="&#xe930;" glyph-name="mail-view" horiz-adv-x="1014" d="M991.509-64h-970.547c-11.529 0-20.962 9.433-20.962 20.962s9.433 20.962 20.962 20.962h949.584v473.744l-452.782-247.353c-10.481-5.241-23.058-2.096-28.299 8.385s-2.096 23.058 8.385 28.299l484.225 264.123c6.289 3.144 14.673 3.144 20.962 0 6.289-4.192 10.481-10.481 10.481-17.818v-529.294c-1.048-12.577-10.481-22.010-22.010-22.010zM991.509-64h-970.547c-11.529 0-20.962 9.433-20.962 20.962v530.342c0 7.337 4.192 14.673 10.481 17.818 6.289 4.192 14.673 4.192 20.962 0l970.547-529.294c8.385-4.192 12.577-14.673 10.481-24.106-3.144-9.433-11.529-15.722-20.962-15.722zM41.924-22.076h867.832l-867.832 473.744v-473.744zM20.962 466.342c-6.289 0-11.529 2.096-15.722 7.337-7.337 8.385-6.289 22.010 2.096 29.347l164.553 142.542c8.385 7.337 22.010 6.289 29.347-2.096s6.289-22.010-2.096-29.347l-164.553-143.591c-4.192-3.144-8.385-4.192-13.625-4.192zM825.908 378.301c-11.529 0-20.962 9.433-20.962 20.962v518.813h-597.421v-513.572c0-11.529-9.433-20.962-20.962-20.962s-20.962 9.433-20.962 20.962v534.534c0 11.529 9.433 20.962 20.962 20.962h640.393c11.529 0 20.962-9.433 20.962-20.962v-539.775c-1.048-11.529-10.481-20.962-22.010-20.962zM660.307 697.973h-308.143c-11.529 0-20.962 9.433-20.962 20.962s9.433 20.962 20.962 20.962h308.143c11.529 0 20.962-9.433 20.962-20.962s-9.433-20.962-20.962-20.962zM660.307 520.843h-308.143c-11.529 0-20.962 9.433-20.962 20.962s9.433 20.962 20.962 20.962h308.143c11.529 0 20.962-9.433 20.962-20.962s-9.433-20.962-20.962-20.962zM992.557 464.246c-5.241 0-9.433 2.096-13.625 5.241l-164.553 142.542c-8.385 7.337-9.433 20.962-2.096 29.347s20.962 9.433 29.347 2.096l164.553-141.494c8.385-7.337 9.433-20.962 2.096-29.347-4.192-5.241-9.433-8.385-15.722-8.385z" />
<glyph unicode="&#xe931;" glyph-name="message" horiz-adv-x="878" d="M21.423-64c-3.213 0-6.427 1.071-8.569 2.142-7.498 3.213-12.854 10.711-12.854 19.28v981.155c0 11.782 9.64 21.423 21.423 21.423h835.481c11.782 0 21.423-9.64 21.423-21.423v-757.289c0-11.782-9.64-21.423-21.423-21.423h-565.556l-256-218.51c-4.285-3.213-8.569-5.356-13.925-5.356zM42.845 917.155v-913.674l227.079 193.874c4.285 3.213 8.569 5.356 13.925 5.356h551.632v714.444h-792.636zM609.473 616.167h-350.259c-11.782 0-21.423 9.64-21.423 21.423s9.64 21.423 21.423 21.423h349.188c11.782 0 21.423-9.64 21.423-21.423s-8.569-21.423-20.351-21.423zM619.113 421.222h-350.259c-11.782 0-21.423 9.64-21.423 21.423s9.64 21.423 21.423 21.423h350.259c11.782 0 21.423-9.64 21.423-21.423s-9.64-21.423-21.423-21.423z" />
<glyph unicode="&#xe932;" glyph-name="message-close" horiz-adv-x="1262" d="M328.453-64c-3.864 0-7.728 1.288-10.304 2.576-9.016 3.864-15.457 12.881-15.457 23.185v189.343h-276.931c-14.169 0-25.761 11.592-25.761 25.761v757.374c0 14.169 11.592 25.761 25.761 25.761h1210.767c14.169 0 25.761-11.592 25.761-25.761v-757.374c0-14.169-11.592-25.761-25.761-25.761h-649.177l-242.153-209.952c-5.152-3.864-10.304-5.152-16.745-5.152zM51.522 202.626h276.931c14.169 0 25.761-11.592 25.761-25.761v-159.718l206.088 179.039c5.152 3.864 10.304 6.44 16.745 6.44h633.721v705.852h-1159.245v-705.852zM763.814 361.057c-6.44 0-12.881 2.576-18.033 7.728l-264.050 264.050c-10.304 10.304-10.304 25.761 0 36.065s25.761 10.304 36.065 0l264.050-264.050c10.304-10.304 10.304-25.761 0-36.065-3.864-5.152-11.592-7.728-18.033-7.728zM499.764 361.057c-6.44 0-12.881 2.576-18.033 7.728-10.304 10.304-10.304 25.761 0 36.065l264.050 264.050c10.304 10.304 25.761 10.304 36.065 0s10.304-25.761 0-36.065l-264.050-265.338c-5.152-3.864-11.592-6.44-18.033-6.44z" />
<glyph unicode="&#xe933;" glyph-name="message-done" horiz-adv-x="1168" d="M331.399-64c-3.576 0-7.153 1.192-9.537 2.384-8.345 3.576-14.305 11.921-14.305 21.458v193.118h-283.716c-13.113 0-23.842 10.729-23.842 23.842v759.357c0 13.113 10.729 23.842 23.842 23.842h1120.559c13.113 0 23.842-10.729 23.842-23.842v-759.357c0-13.113-10.729-23.842-23.842-23.842h-551.935l-245.569-210.999c-4.768-3.576-10.729-5.96-15.497-5.96zM47.683 200.643h283.716c13.113 0 23.842-10.729 23.842-23.842v-165.7l213.383 183.581c4.768 3.576 9.537 5.96 15.497 5.96h536.438v711.674h-1072.875v-711.674zM548.359 405.681c-5.96 0-11.921 2.384-16.689 7.153l-127.553 126.361c-9.537 9.537-9.537 23.842 0 33.378s23.842 9.537 33.378 0l109.672-109.672 218.151 218.151c9.537 9.537 23.842 9.537 33.378 0s9.537-23.842 0-33.378l-233.648-234.841c-4.768-4.768-10.729-7.153-16.689-7.153z" />
<glyph unicode="&#xe934;" glyph-name="message-empty" horiz-adv-x="1149" d="M163.697-64c-3.585 0-5.974 0-9.559 2.39-8.364 3.585-14.338 11.949-14.338 21.508v213.881h-115.902c-13.144 0-23.897 10.754-23.897 23.897v738.427c0 13.144 10.754 23.897 23.897 23.897h1101.666c13.144 0 23.897-10.754 23.897-23.897v-738.427c0-13.144-10.754-23.897-23.897-23.897h-715.725l-229.414-230.609c-4.779-4.779-10.754-7.169-16.728-7.169zM47.795 221.573h115.902c13.144 0 23.897-10.754 23.897-23.897v-179.23l195.958 195.958c4.779 4.779 10.754 7.169 16.728 7.169h701.386v690.632h-1053.872v-690.632z" />
<glyph unicode="&#xe935;" glyph-name="message-fail" horiz-adv-x="1168" d="M367.162 641.714h-35.763c-13.113 0-23.842 10.729-23.842 23.842s10.729 23.842 23.842 23.842h35.763c13.113 0 23.842-10.729 23.842-23.842s-10.729-23.842-23.842-23.842zM836.843 641.714h-35.763c-13.113 0-23.842 10.729-23.842 23.842s10.729 23.842 23.842 23.842h35.763c13.113 0 23.842-10.729 23.842-23.842s-10.729-23.842-23.842-23.842zM331.399-64c-3.576 0-7.153 1.192-9.537 2.384-8.345 3.576-14.305 11.921-14.305 21.458v193.118h-283.716c-13.113 0-23.842 10.729-23.842 23.842v759.357c0 13.113 10.729 23.842 23.842 23.842h1120.559c13.113 0 23.842-10.729 23.842-23.842v-759.357c0-13.113-10.729-23.842-23.842-23.842h-551.935l-245.569-210.999c-4.768-3.576-10.729-5.96-15.497-5.96zM47.683 200.643h283.716c13.113 0 23.842-10.729 23.842-23.842v-165.7l213.383 183.581c4.768 3.576 9.537 5.96 15.497 5.96h536.438v711.674h-1072.875v-711.674zM728.363 310.314v0c-13.113 0-23.842 10.729-23.842 23.842 0 32.186-13.113 63.18-35.763 85.83s-53.644 35.763-85.83 35.763c0 0 0 0 0 0-66.757 0-120.4-53.644-120.4-120.4 0-13.113-10.729-23.842-23.842-23.842 0 0 0 0 0 0-13.113 0-23.842 10.729-23.842 23.842 0 45.299 17.881 87.022 48.875 119.208 32.186 32.186 73.909 48.875 119.208 48.875 0 0 0 0 0 0 45.299 0 87.022-17.881 119.208-48.875 32.186-32.186 48.875-73.909 48.875-119.208 1.192-14.305-9.537-25.034-22.65-25.034z" />
<glyph unicode="&#xe936;" glyph-name="message-midle" horiz-adv-x="1277" d="M638.338-64c-6.649 0-13.299 2.66-18.618 7.979l-218.099 218.099h-375.023c-14.629 0-26.597 11.969-26.597 26.597v744.727c0 14.629 11.969 26.597 26.597 26.597h1223.481c14.629 0 26.597-11.969 26.597-26.597v-744.727c0-14.629-11.969-26.597-26.597-26.597h-375.023l-218.099-218.099c-5.319-5.319-11.969-7.979-18.618-7.979zM53.195 215.273h359.065c6.649 0 13.299-2.66 18.618-7.979l207.46-207.46 207.46 207.46c5.319 5.319 11.969 7.979 18.618 7.979h359.065v691.532h-1170.286v-691.532z" />
<glyph unicode="&#xe937;" glyph-name="message-minus" horiz-adv-x="1205" d="M783.059 549.417h-324.533c-13.522 0-24.586 11.064-24.586 24.586s11.064 24.586 24.586 24.586h324.533c13.522 0 24.586-11.064 24.586-24.586s-11.064-24.586-24.586-24.586zM349.119-64c-3.688 0-7.376 1.229-11.064 2.459-8.605 3.688-13.522 12.293-13.522 22.127v191.77h-299.947c-13.522 0-24.586 11.064-24.586 24.586v758.473c0 13.522 11.064 24.586 24.586 24.586h1155.534c13.522 0 24.586-11.064 24.586-24.586v-758.473c0-13.522-11.064-24.586-24.586-24.586h-554.411l-260.61-211.438c-4.917-3.688-9.834-4.917-15.981-4.917zM49.172 201.527h299.947c13.522 0 24.586-11.064 24.586-24.586v-164.725l227.419 184.394c4.917 3.688 9.834 4.917 15.981 4.917h538.43v709.301h-1106.363v-709.301z" />
<glyph unicode="&#xe938;" glyph-name="message-music" horiz-adv-x="1144" d="M318.759-64c-3.503 0-7.006 1.168-9.341 2.335-8.173 3.503-14.011 11.676-14.011 21.017v193.824h-272.055c-12.844 0-23.352 10.509-23.352 23.352v760.119c0 12.844 10.509 23.352 23.352 23.352h1097.56c12.844 0 23.352-10.509 23.352-23.352v-760.119c0-12.844-10.509-23.352-23.352-23.352h-549.948l-237.026-211.339c-3.503-3.503-9.341-5.838-15.179-5.838zM46.705 199.881h272.055c12.844 0 23.352-10.509 23.352-23.352v-164.634l204.333 182.148c4.67 3.503 9.341 5.838 15.179 5.838h535.936v713.414h-1050.855v-713.414zM609.496 389.035c-42.034 0-75.895 33.861-75.895 75.895s33.861 75.895 75.895 75.895 75.895-33.861 75.895-75.895c0-42.034-33.861-75.895-75.895-75.895zM609.496 495.288c-16.347 0-29.19-12.844-29.19-29.19s12.844-29.19 29.19-29.19c16.347 0 29.19 12.844 29.19 29.19s-12.844 29.19-29.19 29.19zM433.186 354.007c-42.034 0-75.895 33.861-75.895 75.895s33.861 75.895 75.895 75.895 75.895-33.861 75.895-75.895-33.861-75.895-75.895-75.895zM433.186 460.26c-16.347 0-29.19-12.844-29.19-29.19s12.844-29.19 29.19-29.19 29.19 12.844 29.19 29.19c0 15.179-12.844 29.19-29.19 29.19zM488.064 406.55c-12.844 0-23.352 10.509-23.352 23.352v260.379c0 11.676 8.173 21.017 18.682 23.352l169.304 33.861c7.006 1.168 14.011 0 19.849-4.67s8.173-10.509 8.173-17.514v-251.038c0-12.844-10.509-23.352-23.352-23.352s-23.352 10.509-23.352 23.352v220.68l-122.6-24.52v-240.529c0-12.844-10.509-23.352-23.352-23.352zM485.729 600.374c-10.509 0-21.017 8.173-23.352 18.682-2.335 12.844 5.838 24.52 18.682 28.023l176.31 35.029c12.844 2.335 24.52-5.838 28.023-18.682 2.335-12.844-5.838-24.52-18.682-28.023l-176.31-35.029c-1.168 1.168-3.503 0-4.67 0z" />
<glyph unicode="&#xe939;" glyph-name="message-plus" horiz-adv-x="1168" d="M584.121 369.919c-13.113 0-23.842 10.729-23.842 23.842v325.439c0 13.113 10.729 23.842 23.842 23.842s23.842-10.729 23.842-23.842v-325.439c0-13.113-10.729-23.842-23.842-23.842zM746.244 533.234h-324.247c-13.113 0-23.842 10.729-23.842 23.842s10.729 23.842 23.842 23.842h325.439c13.113 0 23.842-10.729 23.842-23.842s-11.921-23.842-25.034-23.842zM331.399-64c-3.576 0-7.153 1.192-9.537 2.384-8.345 3.576-14.305 11.921-14.305 21.458v193.118h-283.716c-13.113 0-23.842 10.729-23.842 23.842v759.357c0 13.113 10.729 23.842 23.842 23.842h1120.559c13.113 0 23.842-10.729 23.842-23.842v-759.357c0-13.113-10.729-23.842-23.842-23.842h-551.935l-245.569-210.999c-4.768-3.576-10.729-5.96-15.497-5.96zM47.683 200.643h283.716c13.113 0 23.842-10.729 23.842-23.842v-165.7l213.383 183.581c4.768 3.576 9.537 5.96 15.497 5.96h536.438v711.674h-1072.875v-711.674z" />
<glyph unicode="&#xe93a;" glyph-name="message-refresh" horiz-adv-x="1168" d="M331.399-64c-3.576 0-7.153 1.192-9.537 2.384-8.345 3.576-14.305 11.921-14.305 21.458v193.118h-283.716c-13.113 0-23.842 10.729-23.842 23.842v759.357c0 13.113 10.729 23.842 23.842 23.842h1120.559c13.113 0 23.842-10.729 23.842-23.842v-759.357c0-13.113-10.729-23.842-23.842-23.842h-551.935l-245.569-210.999c-4.768-3.576-10.729-5.96-15.497-5.96zM47.683 200.643h283.716c13.113 0 23.842-10.729 23.842-23.842v-165.7l213.383 183.581c4.768 3.576 9.537 5.96 15.497 5.96h536.438v711.674h-1072.875v-711.674zM656.838 369.919h-72.717c-96.559 0-168.084 98.943-168.084 185.965 0 13.113 10.729 23.842 23.842 23.842s23.842-10.729 23.842-23.842c0-64.373 52.452-138.282 120.4-138.282h72.717c13.113 0 23.842-10.729 23.842-23.842s-10.729-23.842-23.842-23.842zM602.002 296.009c-4.768 0-9.537 1.192-14.305 4.768-10.729 8.345-13.113 22.65-4.768 33.378l42.915 58.412-42.915 58.412c-8.345 10.729-5.96 25.034 4.768 33.378s25.034 5.96 33.378-4.768l53.644-72.717c5.96-8.345 5.96-20.265 0-28.61l-53.644-72.717c-4.768-5.96-11.921-9.537-19.073-9.537zM765.318 533.234c-13.113 0-23.842 10.729-23.842 23.842 0 64.373-52.452 138.282-120.4 138.282h-71.525c-13.113 0-23.842 10.729-23.842 23.842s10.729 23.842 23.842 23.842h71.525c96.559 0 168.084-98.943 168.084-185.965 0-13.113-10.729-23.842-23.842-23.842zM602.002 621.448c-7.153 0-14.305 3.576-19.073 9.537l-53.644 72.717c-5.96 8.345-5.96 20.265 0 28.61l53.644 72.717c8.345 10.729 22.65 13.113 33.378 4.768s13.113-22.65 4.768-33.378l-42.915-58.412 42.915-58.412c8.345-10.729 5.96-25.034-4.768-33.378-3.576-3.576-9.537-4.768-14.305-4.768z" />
</font>
</defs>
</svg>
